<mxfile host="app.diagrams.net" agent="Mozilla/5.0 (Windows NT 10.0; Win64; x64) AppleWebKit/537.36 (KHTML, like Gecko) Chrome/134.0.0.0 Safari/537.36 Edg/134.0.0.0" version="26.1.1">
  <diagram name="第 1 页" id="puRY0AE4rklr6UkxOLTu">
    <mxGraphModel dx="1988" dy="953" grid="0" gridSize="10" guides="1" tooltips="1" connect="1" arrows="1" fold="1" page="0" pageScale="1" pageWidth="827" pageHeight="1169" math="0" shadow="0">
      <root>
        <mxCell id="0" />
        <mxCell id="1" parent="0" />
        <mxCell id="imneoMgZ-NvgOX7fIsPj-4" value="" style="rounded=0;whiteSpace=wrap;html=1;sketch=1;curveFitting=1;jiggle=2;dashed=1;dashPattern=8 8;" vertex="1" parent="1">
          <mxGeometry x="-146" y="230" width="145" height="176" as="geometry" />
        </mxCell>
        <mxCell id="imneoMgZ-NvgOX7fIsPj-1" value="&lt;font style=&quot;font-size: 20px;&quot;&gt;超级计算机&lt;/font&gt;" style="rounded=0;whiteSpace=wrap;html=1;fillColor=#ffe6cc;strokeColor=#d79b00;sketch=1;curveFitting=1;jiggle=2;" vertex="1" parent="1">
          <mxGeometry x="-135" y="240" width="126" height="40" as="geometry" />
        </mxCell>
        <mxCell id="imneoMgZ-NvgOX7fIsPj-2" value="&lt;font style=&quot;font-size: 20px;&quot;&gt;分布式系统&lt;/font&gt;" style="rounded=0;whiteSpace=wrap;html=1;fillColor=#ffe6cc;strokeColor=#d79b00;sketch=1;curveFitting=1;jiggle=2;" vertex="1" parent="1">
          <mxGeometry x="-135" y="299" width="126" height="40" as="geometry" />
        </mxCell>
        <mxCell id="imneoMgZ-NvgOX7fIsPj-3" value="&lt;font style=&quot;font-size: 20px;&quot;&gt;操作系统&lt;/font&gt;" style="rounded=0;whiteSpace=wrap;html=1;fillColor=#ffe6cc;strokeColor=#d79b00;sketch=1;curveFitting=1;jiggle=2;" vertex="1" parent="1">
          <mxGeometry x="-135" y="358" width="126" height="40" as="geometry" />
        </mxCell>
        <mxCell id="imneoMgZ-NvgOX7fIsPj-6" value="" style="shape=flexArrow;endArrow=classic;html=1;rounded=0;sketch=1;curveFitting=1;jiggle=2;width=7.5;endSize=5.275;" edge="1" parent="1">
          <mxGeometry width="50" height="50" relative="1" as="geometry">
            <mxPoint x="7" y="259.58" as="sourcePoint" />
            <mxPoint x="50" y="259.58" as="targetPoint" />
          </mxGeometry>
        </mxCell>
        <mxCell id="imneoMgZ-NvgOX7fIsPj-7" value="&lt;font style=&quot;font-size: 20px;&quot;&gt;日志数据&lt;/font&gt;" style="rounded=0;whiteSpace=wrap;html=1;fillColor=#dae8fc;strokeColor=#6c8ebf;sketch=1;curveFitting=1;jiggle=2;" vertex="1" parent="1">
          <mxGeometry x="55" y="242" width="96" height="40" as="geometry" />
        </mxCell>
        <mxCell id="imneoMgZ-NvgOX7fIsPj-8" value="" style="shape=flexArrow;endArrow=classic;html=1;rounded=0;sketch=1;curveFitting=1;jiggle=2;width=8.333333333333334;endSize=3.6083333333333334;" edge="1" parent="1">
          <mxGeometry width="50" height="50" relative="1" as="geometry">
            <mxPoint x="107.58000000000001" y="295.5" as="sourcePoint" />
            <mxPoint x="108" y="346.5" as="targetPoint" />
          </mxGeometry>
        </mxCell>
        <mxCell id="imneoMgZ-NvgOX7fIsPj-11" value="&lt;font style=&quot;font-size: 20px;&quot;&gt;去重&lt;/font&gt;" style="text;html=1;align=center;verticalAlign=middle;whiteSpace=wrap;rounded=0;" vertex="1" parent="1">
          <mxGeometry x="33" y="306" width="60" height="30" as="geometry" />
        </mxCell>
        <mxCell id="imneoMgZ-NvgOX7fIsPj-12" value="&lt;span style=&quot;font-size: 20px;&quot;&gt;日志事件&lt;/span&gt;" style="rounded=0;whiteSpace=wrap;html=1;fillColor=#f8cecc;strokeColor=#b85450;sketch=1;curveFitting=1;jiggle=2;" vertex="1" parent="1">
          <mxGeometry x="55" y="360" width="94" height="38" as="geometry" />
        </mxCell>
        <mxCell id="imneoMgZ-NvgOX7fIsPj-14" value="" style="shape=flexArrow;endArrow=classic;html=1;rounded=0;sketch=1;curveFitting=1;jiggle=2;width=7.5;endSize=5.275;" edge="1" parent="1">
          <mxGeometry width="50" height="50" relative="1" as="geometry">
            <mxPoint x="156" y="375" as="sourcePoint" />
            <mxPoint x="199" y="375" as="targetPoint" />
          </mxGeometry>
        </mxCell>
        <mxCell id="imneoMgZ-NvgOX7fIsPj-15" value="" style="shape=image;verticalLabelPosition=bottom;labelBackgroundColor=default;verticalAlign=top;aspect=fixed;imageAspect=0;image=https://static.vecteezy.com/system/resources/previews/021/059/827/original/chatgpt-logo-chat-gpt-icon-on-white-background-free-vector.jpg;" vertex="1" parent="1">
          <mxGeometry x="154" y="317.5" width="42" height="42" as="geometry" />
        </mxCell>
        <mxCell id="imneoMgZ-NvgOX7fIsPj-17" value="" style="rounded=0;whiteSpace=wrap;html=1;sketch=1;curveFitting=1;jiggle=2;dashed=1;dashPattern=8 8;" vertex="1" parent="1">
          <mxGeometry x="206" y="273" width="181" height="131" as="geometry" />
        </mxCell>
        <mxCell id="imneoMgZ-NvgOX7fIsPj-18" value="&lt;span style=&quot;font-size: 16px;&quot;&gt;事件洞察&lt;/span&gt;" style="rounded=0;whiteSpace=wrap;html=1;fillColor=#e1d5e7;strokeColor=#9673a6;sketch=1;curveFitting=1;jiggle=2;" vertex="1" parent="1">
          <mxGeometry x="214" y="284.5" width="78" height="28" as="geometry" />
        </mxCell>
        <mxCell id="imneoMgZ-NvgOX7fIsPj-19" value="&lt;span style=&quot;font-size: 16px;&quot;&gt;Grok 模式&lt;/span&gt;" style="rounded=0;whiteSpace=wrap;html=1;fillColor=#e1d5e7;strokeColor=#9673a6;sketch=1;curveFitting=1;jiggle=2;" vertex="1" parent="1">
          <mxGeometry x="301" y="284.5" width="78" height="28" as="geometry" />
        </mxCell>
        <mxCell id="imneoMgZ-NvgOX7fIsPj-20" value="&lt;span style=&quot;font-size: 16px;&quot;&gt;根因分析&lt;/span&gt;" style="rounded=0;whiteSpace=wrap;html=1;fillColor=#e1d5e7;strokeColor=#9673a6;sketch=1;curveFitting=1;jiggle=2;" vertex="1" parent="1">
          <mxGeometry x="214" y="324.5" width="78" height="28" as="geometry" />
        </mxCell>
        <mxCell id="imneoMgZ-NvgOX7fIsPj-21" value="&lt;span style=&quot;font-size: 16px;&quot;&gt;组件关联&lt;/span&gt;" style="rounded=0;whiteSpace=wrap;html=1;fillColor=#e1d5e7;strokeColor=#9673a6;sketch=1;curveFitting=1;jiggle=2;" vertex="1" parent="1">
          <mxGeometry x="301" y="324.5" width="78" height="28" as="geometry" />
        </mxCell>
        <mxCell id="imneoMgZ-NvgOX7fIsPj-22" value="&lt;span style=&quot;font-size: 16px;&quot;&gt;根因分析&lt;/span&gt;" style="rounded=0;whiteSpace=wrap;html=1;fillColor=#e1d5e7;strokeColor=#9673a6;sketch=1;curveFitting=1;jiggle=2;" vertex="1" parent="1">
          <mxGeometry x="214" y="364.5" width="78" height="28" as="geometry" />
        </mxCell>
        <mxCell id="imneoMgZ-NvgOX7fIsPj-23" value="" style="shape=image;verticalLabelPosition=bottom;labelBackgroundColor=default;verticalAlign=top;aspect=fixed;imageAspect=0;image=https://images.icon-icons.com/3478/PNG/512/info_qa_answer_question_icon_219984.png;" vertex="1" parent="1">
          <mxGeometry x="326" y="360.5" width="37.5" height="37.5" as="geometry" />
        </mxCell>
        <mxCell id="imneoMgZ-NvgOX7fIsPj-24" value="&lt;span style=&quot;font-size: 20px;&quot;&gt;可解释性知识&lt;/span&gt;" style="text;html=1;align=center;verticalAlign=middle;whiteSpace=wrap;rounded=0;" vertex="1" parent="1">
          <mxGeometry x="232" y="230" width="130" height="30" as="geometry" />
        </mxCell>
        <mxCell id="imneoMgZ-NvgOX7fIsPj-26" value="" style="shape=flexArrow;endArrow=classic;html=1;rounded=0;sketch=1;curveFitting=1;jiggle=2;width=8.333333333333334;endSize=3.6083333333333334;" edge="1" parent="1">
          <mxGeometry width="50" height="50" relative="1" as="geometry">
            <mxPoint x="397" y="383" as="sourcePoint" />
            <mxPoint x="463" y="318" as="targetPoint" />
            <Array as="points">
              <mxPoint x="463" y="383" />
            </Array>
          </mxGeometry>
        </mxCell>
        <mxCell id="imneoMgZ-NvgOX7fIsPj-28" value="&lt;font style=&quot;font-size: 20px;&quot;&gt;CPT&lt;/font&gt;" style="text;html=1;align=center;verticalAlign=middle;whiteSpace=wrap;rounded=0;" vertex="1" parent="1">
          <mxGeometry x="397" y="386" width="60" height="30" as="geometry" />
        </mxCell>
        <mxCell id="imneoMgZ-NvgOX7fIsPj-29" value="&lt;div&gt;&lt;span style=&quot;font-size: 20px;&quot;&gt;通用&lt;/span&gt;&lt;/div&gt;&lt;span style=&quot;font-size: 20px;&quot;&gt;SFT&lt;/span&gt;" style="text;html=1;align=center;verticalAlign=middle;whiteSpace=wrap;rounded=0;" vertex="1" parent="1">
          <mxGeometry x="395" y="339" width="60" height="30" as="geometry" />
        </mxCell>
        <mxCell id="imneoMgZ-NvgOX7fIsPj-30" value="" style="shape=image;verticalLabelPosition=bottom;labelBackgroundColor=default;verticalAlign=top;aspect=fixed;imageAspect=0;image=data:image/png,iVBORw0KGgoAAAANSUhEUgAAAgAAAAIACAYAAAD0eNT6AAAAAXNSR0IArs4c6QAAIABJREFUeAHsnQeUFMXXxQt2WfKSQQUVCYKACiKoYCQJihgRUEBUTPw/xYwoiEoQEAUFUYIomEFBEEHJOSMiQaIEV3JcWDbv+3i4g+Mwobuquqen+845e2Z2pkPVr6ruu11dXSUEXl4kcIEQYqYQ4nwvZh55BgEQ+A+BKkKIGUKIEv/5Fv+AAAi4jkAxIcRvQggSQmwSQpRzXQ6RIRAAAaMELhRC7MjVg/lCiAJGd8R2IAACsUWAG/eC3MbOBoD/2AyUjK1sILUgAAIaCJQXQmwL0IPJQog4DcfGIUAABBxEIK8QYkJAY/eZgGVCiKIOSiuSAgIgYC2BMkKIDSH04GNrT42jgwAI2E3ggxCN3WcCFgshitidKJwPBEDAdgLFhRC/RtCDHranCicEARCwhMDrERq7zwTwwEDcA7SkCHBQEHAEAR4DtNKAHuQIIR51RIqRCBAAAWkCnQ00dp8B4PefhRD5pc+GHUEABJxKoHCQMUD+bT/wc5YQ4m6nZgbpAgEQCE+gpRAi06QBYBGYKISID39o/AoCIBBDBAoKIeZKaMGp048MN4yhfCKpIAACQohrhBAnJRq87ypgPEYDox6BgCsIJAghflLQgkNCiMtcQQKZAAEPEKghhDis0OB9JuBTIQQ/PYAXCIBAbBLIJ4TgR/t8bVr2/S8hBM8ZgBcIgICDCfAsfzs1NHifUAxzcF6RNBAAgdAE+Hn+rzVqwXrMFhgaNn4BgWgT8J/lzxfAdbwPjnbGcH4QAAFTBPIIIUZrDP4+HcFsgaaKARuDgD0Egs3y52u0Ot7ftCcbOAsIgIAiAQ7+H1kQ/H06gtkCFQsIu4OATgLhZvnzNVod7911JhrHAgEQsITAOxYGf5+OYLZAS4oOBwUB8wQizfLna7Q63l8ynzzsAQIgYBOBt20I/j4dec2mPOE0IAACIQj0tLHBc8PnGcIeD5EWfO1MAjwY7CIhRF0hRGMhxG2n54FvLYR4JPePP/N3jXK34dHeePrDmWUZLlVvREELuA7hBQIgEAUCPMsfB2SfI7frPVsI0TEK+cUpwxPgyZtqCyGeFEKMyF3jfasQIkOijqQLIbYIIX7JvZ/Mde1yzA0RvgCi+OvLEmWsQy94orHbo5hvnBoEPEngDslZ/nQ0ej4GTxN6vyfJOyfTfJV+nRCinxCCR2erTPxktF4kCyHmCCF4UOjVp995wBle0SXwTJSCv6/OpJyeQvza6CLA2UHAOwQaCCG40fkaYLTe+cryTu9gd0ROeVY3nuJ51Okr/X0OqAM8QcxwIUQzTB8dlfrxWJR6AQM15+DpOQeqRYUATgoCHiKga5a/wAYs+z93FaML0PoKWOX0So39hRD7HRD0Q9WVPblprGg9DpxBCNFBCMG340KVh93fY7ZAVEsQsJBAGc2z/OkSCF4w5BYL8+3VQ3P3OvewzHLIVZ7R+sK3h34UQjTxasHZkG8euMmcjZaJXdutEULwqoN4gQAIaCTAI7l5QJZdDdnsefiWxI0a8+v1Q3HwNLJuu9lysnv7JUIIHq+Clz4CzYUQaQ7Wgq/0ZRVHAgEQYAJ2TO6hGhyO5Q4MQ4nJE2Bxd0PgD6xLC073ZFwvjwV75hLgsRZODv6+cu+KEgMBENBDoJXOLuA8efLQZ2++Rg+3ut3XWHW+8yqEV+jJtqeOws/eT3TwVZ2OOsKPrH52etBgWU+VrL7M3mTF4N9Xb7+FBtzXQkf5+h+DBwjX15d1HAkEvEmgtO7R3gO7diH6dRFlr1pAD97WzL/R6vp8QAjBgxXxikyAn93nqyV+vE4Xf6cf52hunvm2Fl7GCPBjdtrryDNNGhB98vaZv+eaXa+73mwSQhQylj1sBQIgEIyA1qvCZx+4/0zwZwPAf5kr59Pdt9you+Hz8f4WQlQOliF8d5ZA1dP3x1d7KPAH1jOeu6DCWRr4EIoAz+DIpimQn9L/T958DeWM7nfWAGSP7kdt6l+hdMwgaeRpyvECARCQINA2SIOSbqBtb21y5qrfF/x97+nL59Jt118nfdwwadwphLhYIt9e2KW9FVd0YcrCivLVccxDmEsibHXn2ReZkQ7WZ4/xUIOriAO+7+rf954+og81uqzy2e00nJdv+2DsR9gixo8gcC6BorlX0VoaY+P6dYkDvS/oB76nLptDvI2GBh94DJ6K9oJzs+fZb/gRqU8t4BzIPZb+5yAxVAiR37O1InjGeWId7ZM9ta1/JWWN6ntO8PeZgOPD3qDaF52vs/6sxSRRwQsY34JAKALv6goSl1epTEfn/xwy+PvMQMqSWXRT3do6G77vWJuFEOeFyqiHvj//9Cx+q3SVqwuPw48M8lwXeP2zeBP3oPnakJb3u+rUoIyRfUIGf58JODCkB1UtV1rLOXPz8DQKFQRAwBgBvjcss4DLOQ22UvkLaO/MKRGDv88EHF/4C9WvVeOc42gQIr4KKGks+67cqpYQYpcGjlaUjZOOyQPHvD52hFdu3KG7rrS4vBpxF78vyEd639zvBSpTtLCuusFjGLzc/l0pasiUNQS+1NH4SxZLpC0/fGM4+PtMwJF506l2taq6Gr7/cfj59mLWIHP0UXlSH54jwZ8FPofmwU+R8CJHXnxxLxGvwqi1fvB9/VMfvWU4+PvMwfIeXahAvnhdaXnbiwWKPIOAGQJ8pag8v3fevHlp+rB3TQd/nwk4MHsq1ahUUVfD9z/OYiFEETNAYnzbFtGcuKVo0aJ01VVXUZs2bahHjx40fPhw+vTTT+mTcV/RiC9+oCGffk99PhhDPfoPoxffeIceeup5atTiLrq0xuVUsJC2qz//8jf6+YQQomGMl73Z5PPtjw26g3/DqhXp5PA3TQd/nwkY8/B9Rsss0na8WmU5s1CwPQh4icAEHQLwxhOPSAd/nwnYM2MyVb2oQqRGLfM7Lydb0AOFylf+qTrK0+gxKlSoQO3bt6eRI0fSpk2bKNLrWEoG/bbzGC3efCjo35c/LaaX3hhETW6/m0qVKSdT1ir7HPfQMrPcPf6b0XI2ul29mpfRsYmfSgd/nwnofGM9lXL035fHNuEFAiAQhMAlOhb4uO6KWpS1aoGyAWAj8Nf0iXRJea0jgn1iMOP0ynEFgjBwy1f86BNfxfrya9l7yZIl6fHHH6eFCxdSTk5OpJgf9PeDyem0avuRoCbA3xyMmTibWnd8nEqU0jpALBwbvnXi9hnlEoUQy3XXlSuqVqZDc3/6RwcmjlYyASkfvUWX6hkUyJMZefE2oFt0DfmwkMAQVREoVKCA1H1/31V/sPftP46nCuXKhhNp2d9+EELks5BntA5d247gf/PNN9OPP/5IWVlZQYO62S+zc3Jo96EUWrIleG+AvxGYv2Ev9Rv6GdWqo+3KMFwd4ufgeTlkN774sdBFqu0+cP/LLqlI+2f9+O9FwOoFRF8NVTIBS159iuLy5g1XTkZ/e86NBYk8gYAKAb4KUJ7qs9//PfFvo8+d7S9YUDf73aaJX1G5UiWNNnAz230jhHDTlLB8j9Oy0f68jsO9995Ly5cvNxvfDW9/Mi2T1u4KfVvA3wjw5+FfTqWGt1gypbR/PfpDCFFcpYE5cF++DTY7MHir/l/lwgr09y8/nKsDy2YRfTZIyQR0ueVa/zKR/cxPOLipzTuwaiFJsUags2rD5/v1actCT/ZjNugHbv/7+LFUungx2UYfbr+xQoi8sVZgQdKbIITg6W3D5VX6t7p169LixYsNB3KVDflOws4DKRFvCfibgWGfT6Eq1WtK588AN14Om9dOcMOL68qPBvJsiueF5crSjqkTzg3+vouBuVOIxvSXNgFHhr6u69HApm4oROQBBHQR4OVSTTX2wO0nD+4fuuH7BEDxffVXY6h40SJK6QxMd+7/Hwsh8uiCGaXj8Ep32tmULVuWxowZQ9nZ2SoxXWpfHiS4wsDYAJ8RWLhx/5mnCYokWmIUme3gKJWtztPyba9JuutK+bJlaNuUbyNrwLSvpA0ADwoc9mArHXX8c51AcSwQiGUCFVWX+726RnXKWb0wcuNXNADcK7Bs3EgqWqiQDhEIPMb7MVyIHXULOh+vSZMm9Pfff0sFb107pWdm05qdR031Bkyat5bq1G8QWL66/r8jhusJd31rmefDv76VKVGcNnz3hfH2/91IaRPAkwlVKqN8OzBFCMHTneMFAp4n8LJ/Y5b5/NMH7xhv/BpMwPzRw4gHHMqkNcI+sThZCM/cpnWin/z589N7770nPapfV/D3HScrO4c2JiWbMgHcG/D4s69SXJy2iWR89Y3nxy8bg6rBt7m0rwNRqlgx4ttzgbfswv6/ch7RF0OkTcDIh+7xlYXKe7sYLEMkGQS0E1AaBVyt4kW2Xf37i8rMj4ZQgYQEFQEItW9P7YStOyCLOs9rECovpr/nx/oWLFjgi72OeedxAVv3njBlAvjWwPufTaQiRRNNc4jAdHqM3TLi21sfRsiTaUbFihShlV+MNhf8fRcAS34h+nSAlAlIG9GbyiUq3wr8yrpmiSODQGwQKK367P/IHi/LCYBPCBTef3x/ICXky2dauAwI4YuxUXziWQN5McyncuXKtGXLFscE/WAJ2b7/pGkTMO7HBVT2/PKGORhk+kiM1BFO5nsG82SYUZFCBWnJZx+rtf3Zk6QMAI8F6NGykeG0hsj7ERcN6oyhqoikOonAAyEah6HGxd3wyQtnqImAggHgHoEJA3tTfFycofSayCsvEfs/JxVUkLTwCoc8W52WvPOUvQcOHAgWcx333bZ95k3A5IXrqWLlS7WwymXOawaUCFIuTvuqr6464jsOt/u5I4fqafc/yM0U+OeAl4kfS/WlSfL9BqcVFtIDAnYS4NHv0o2o/W236hEBRRMwfkBvXZOE+LNgE/CEnYVh8lza7udWq1aN9u3b57hAHy5Bm/eYvx3w4+I/6KJLqviXsepnpw8c7aHSvoPtyz1uWsf8rJhL9OlAqZ6AGy+9RLX8XjPZ5rA5CLiKwO/BGrnR76YMGeAIA8A9AaN6dtNxRRAoKLww0oMOLPF6OhZt4nKuWrUq7dmzJ1ysdeRvPCZg3e7jpm8HfD93DZW7QNsaE5lCiJoOrB+cpOeNtmOj2+WLjydLHvf96UspAzC8/Z2B7dXs/9McWnZIFghYToBnNpNe+a9g/vyUsmSWYwwAm4Ch3Z4zKwBGtmeRv9fy0jB3Al7V0Ejaw25TunRp2rFjhyMDvJFEZWbl0Oo/zT0iyAMDv5y2hAoXKRqWjQm+PEGQ015dVB/tDcw/T8PLPW3+A3G1feanAiQGBO5+5xVV089Pz7hhEjCn1T+kJwYI3BTYyM38f/sNDawRA8XbAQO7dtEl7P7HSRdC3O6QMuVV/vzTJvU5Li6OZs6caSTOOnqblLQsWrrlsOmegLc/HKcaPPy5X+OQusHJeFh38Oflvcf17mlte5ccC3DlhcqLhVV1UNkhKSBgG4H/UwkkA7o+Za0gKBgBXo5YJW8h9mUT0MK20gl9Ii3zt/fv39/Rgd1M4vYdSzVtALgn4OEuL+qqJ7ywlBNe9wkhuMdKV77OmKSPXn3R+ra+6Gep2wBPN1ae8OlOJxQc0gACdhP4SEUoFo4Zbr0oKJiAbp0e1CaCfpx4BrEb7S4ov/Px0rTK+br11lsdM8mPmUAfbluZQYEL/zhAV9TVssAMDxi93K+covHxHt3Bn+va+y91ta+dfz7YtAn45ol2qu0BAwGjUVtxzqgTmCsbTLhL8ORiZ93/D3Y/8pl2rVXFIdj+vGpitLp8J8qWmW+/IkWK0M6dO8PF0pj8jccDrDSxboBv/YCvf15GCfnzBytns9/xFLvRet0mhOAeKrNpDrt9/2ds7uWb/JlpA7DtbeVeHKwLEK1ai/NGlcA2WcGoXKG8fVcFCr0AvD7Bk/fdFVbkJBnw4KGrbS69C1QnbeK8fvDBBzEZ4I0k+mByutStgCdf6KmjjnAA5om17H41FkKkStbjkPnm22jBTLWl3/FqgZ+8beove3Q/KpSgNBnYPLsLDOcDgWgT4KlBpUWjpUMHAAYTp+xVC6hjy+YhhU5BOA8KIWrZWJDdFNJ6Jv/16tWLyqp+RoK3rm02JJl/NHDBxn1UsUo1HXXkaRvrA5/qeiHESdV6Ebj/yw89aH/wZ6PPcwKYNAC8fe2LlAYCbrW5zHA6EIg6Ab5SkRa8p1rfHR2BkOwNyFq1gO5vqjx1aDBee4UQl9pUmhtVyoz3/eWXX3TFWcceJzUji5ZsOWS6J6Df0M+Cla/Z7361qS7waXg8iLaZIH116+m290W3bY9717QJaFX7MrPl5L89j+vBCwQ8RYCDln8jMPW5z/8ei65ISBiBjBXzqNVN15vKp0FGfwkhKllce3jMgVLar7/+escGbd0Jk1kvgMcE1Kx9tRLj3DKqbXFd4MNfIYQ4rFonAvd/uNXtxD1mwXrSbPtu/EemDcATN12jWm4FbSgznAIEHEOgTmDjN/O/LY8FSQT5SCKVtmwu3XqdslgEE5s/hRAXWli6Q8yUT7Bt58+frzvOOvZ46ZnZtHSr+bkBhoz5LljZmv3O6iWleeZBXofAbLrCbs/Tekc9+HObn/SJaQOgYWGgMha2XRwaBBxHgB9lCysI4X7/vI/Fk4JYEPx95uDU0tl0S72rpPMehgvfSzzfopLeFOa8EfNSu3ZtxwZrqxK280CK6dsA3AtQqapSdzKXxRqL6gAftooQ4m+VuhBs33sa3USZK+dH98rf1+anjDNtAPre0yxiGwiWb7/vLrawzHBoEHAcgWZ+ld904/l+UF9niIVPNEy+n1g0kxpcebnpfBtgtl4IwWJSIXdsQF0hxM1CCJ69j58a4P/5dkFJEzWCj6eU1pEjR1oVZx17XO4FkBkL8FyPt5VY587Cx09sGHkVzq0PXC/4r1FuXeHBffw/X+2XFULwoN2KQojdqnUhcP87bmxIfHvMZ5Cj/i6xLsCQdi1Vy6yGkcLCNiDgFgL86JB0o+EleKMuFCaDfmB6jy34mepepmXktyzHU0KIzacnFpojhPgwd+XBBkKIogGV7HGVskpMTKQTJ044NlBbmTCZyYF+WbmdChQsJFumvv0e8SvDhNwBe/zdICHEz0KIP4QQJ0yUa5bKUzuhztPsuvrEt8UC20ZU/5cwAIPbKhuA6n7lhY8g4HoCSusAfNm3l7NEQ9IMHJr7E11RtbJPtJ3yzmK/KjdYtDzdczA1lIAb+b5z585WxlhHHzs5NVPqNsCtrZQnkJp/+qr9TSEET7bFRs8pdetsOm6qW9txi3mdMR4/mr8FMLB1i7P5kmRd2fWKjwyCgB+BhpIN5UxDG/36K64wACw4+2f9SNUrXqwqII7df/LkyY4O0lYn7tcd5lcL7D1ktGPLU6Xd+va97opalLxwhjPb8BTzswG+eWcT1fLCGAC/4ICP7idwpU8MZN5tnyJU8grfaFdm0s+TiGc3lGHh5H0KFChAKSkpVsdYRx9/9yHzgwFnrN5B+fIluK4+cF3l215H5//szODP7fz7kaYHAWpYEAhPAbg/5iGHfgR4kJq0wL3Qoa1zBUTCLPB90B6dH5LmocLSyn1btGjh6OBsR+JOpWdJ3Qao1+Am19WHGpUqEt/2MmqMo7Ldl++bNgBt6l+hUlbZQog4P23ERxBwPQGe+EK60dzX5BZni4hBE8CPBA567v/ogjKlpVmocLR633feeceOGOv4c6z+0/xtgMe6dnddncifkI+63H83/TV9ojPb7+qFRGMGmDYADaoo3cLjKb3xAgHPETAzCvk/Yli7WlVnCojBwM9TA495oztVKFf2P/myOiDbffxZs2Y5PjjbkcBt+06a7gV4d9Q3rq0bbASeb9/WebcClvxiOvjzWgClixRWKSueYhsvEPAcgbWyAalwwQLOmDXMYMD378pcOnYEsYGRzXss7Xf48GE74qvjz3FIYpXAHxf/4fo6UqZEcfr4tZec05Z/GW/aABz+QHklx2meU35kGAROzyeutLb8hu++iKleAH7u//F7WlHevHldL+xsUi6++GLHB2a7EpiWkW26B4BnBSx73gWeqCvX176C/pj4ZfTb8/ejTBuAmS88qlpG7yMagIAXCQxUuZod+1aP6AuGwR6AuSOH0sXnn6cqFDG1f9OmTe2KrzFxnuUSawPUrnddTJW5SnsukJBwZjxMDt+HN9iutG63aiHRZ++YNgAapgG2ewlnL8Ya5NmBBDqpCMZj97SKjlCYECee3/yVh9t75qrfvzzbt28fE4HZrkSu233cdC9A49vu9owB8NUdXixr78wp9rftOT+YDv58/7/lldVVy6ipA7UZSQIBywlc7mv0Mu8VLzjffpEwEfwPzJ5KTa7RsryrqsBEZf8XX3zRrtgaE+fZsveEaQPQptNTUSk7mfaocx8eGzBv1DB72/eEj00bgIyRfSixYH6VMsoRQpSyXGlxAhBwIIF4IUSKinBs+eEbe0XCoAFY8/WnVL5sGRVhiPl9Bw4cGBOB2a5E7pBYHfB/L70R8/VAtn3zkwKf9OpuT/tePMN08Oer/wXdnlAtn20O1GUkCQRsI7BIViB4vz7/e8wegTAY+Pme5LShg6hoIeXFXFSFJer7jx492q7YGhPn+fvIKdM9AK/0GRz1clRpnzr27flYJ7J8XIDE4D82AF2bNFQtn69tU1qcCAQcSKC3ikjwzGJaBwKZCPTBzsuLFMXHxamKgiv2//rrr2MiMNuVyH3HUk0bgLcGj3JFXVBp47zvo3e1JJ47I1ibU/5u4TSpq//MUX2pbGIR1fJ5yoGajCSBgG0ElFYFZHHg7nZlEVAM/Hz+UT27RXWwX6FChah27drUpk0beuGFF+j111+nAQMG0IgRI+jjjz+m/v37U/fu3alLly704IMP0tVXX028j6o4h9p/ypQpdsXWmDjPweQ00wbgnRFfW1I+cXHxdHGlqtSo+Z10V9tO1P6xZ+jJF3rS868PoJffeo+e6d6beCZC/v62e9rRFVddQ8VKlLIkLaHqT+D3D7Roqt8E8Mh/ial/+ep/alctU3dXsU1pcSIQcCABXqv8ZGBjN/P/ix3bRd0A8Kx+efLksVUgq1atSk888QR9++23tGvXLsrJyTEdCLOysmjz5s00fvx44kF71apV05aH2bNnm06Pm3c4fDLdtAH48IsftZRHseIliZcY7tF/GH06aS7NW7fHdFp4XoLpK7bS+59NpI5PPkc1a19NbCTMtFXVbbWbgB+/kLr6ZwOgOP8/c9vhQD1GkkDAdgI/qAhDyWKJdGLRzKiZgO8H9aU4myb3qVGjxpkreQ74Vr02bdp0puegQYMGSuK+bNkyq5IYk8c9lpJhOuhysJZtG+ddcCF1eOJZ+ujrn2jhxv2mz80BP9Ifr1rYc+BwqtfwZspr062vJ++7S09bnztZOvjvfe9VKpBP2fx8ZLvS4oQg4EAC7WVFzrffu8//nx5RMHkrYP7oYcSjlX3psOI9ISGBHnvsMVq1apXtge+3336jjh07EqfBbN7WrVtne3qdfMITqZkRA2pgwP1mxgrT3OvUb0j9hn5mWdAPTKPv/x8WrKMnn+9BJUtb//TLm08+qtbeF/9M9OlAaQPwUvMbTZdLkPbT2IFajCSBgO0Eigkh0oI0EMONjB+5S18+V00UTAb/bVO+pdLFixlOo9n88f35rl270l9//RX1uLZnzx569dVXqXjx4obzu3379qin20kJkFkWeMrijYZ4c1d88zvvp7FT5ps2Gb4Arut9ztokeq7H21T2/PKG0m62Xfi2/6rfG3LtfckMonHvSgf/Q+/3pCL5zRtiX7pz3/djCWDb4wxO6GACSrcBuFHxIDy7BgMmL5xB1SsqLQEaUhx5LAHPord3714nxa8zaTly5MgZI1CkSOTRz/v27XNc+qOZoPRM8+sBzPptd8h6wnWeA3+Lu9sS9xToCuC6jjNv/R7q8lIvKlDQmoGmBfPnp9VfjTHX5hdOJxprfrpfvufv++t5R6OwZRIQ6ENt+6GDtRhJAwHbCdxhsOGEalB0QZnSxIHZDhPQplnjkOlQyQff4587d24045Shcx84cICee+45KliwYEgOJ06cMHQsr2yUlZ1jOkgv2nQw6JMl8fH56PZ7H6DxM1eZPqauAG/0OBPn/kY3Nb09ZD1RaS+8vsaRedONtXme6nfMgLOB3BfQzbzvG/waFS9UQEde6tqusDghCDiYAM8KmKQiBrzvCx3aGhMDk939/qbio1df1CEA/zkGX/U///zzlJ6eHlPxMCkpiZ566qlzxghwfrKzs2MqL3Yk1mjQ9N+ucJGiZ+sKB/6W97WnCbNWOz7w++eBP/OcBv55UW3rvv3vbXxz5DY//RulwO8zCQ9eW/tsWfjOL/G+ysE6jKSBQNQIvCnRmP7TIPPFx5OVywRvnvQ1FSqg5QrgbLpLlixJsf7M/I4dO6hTp04UH//PyGgev4DXuQSWSawIWKbc+ZQvXwK1ur8DfTfn15gL/P5G4NsZK6lazSvO1n3V9u7bf2SPl4ObgFXziCRn+fMFfd/7rBc760r3Y1FTWJwYBBxMoKwQItXXqGXfb6pbm7ItmDWMZyJrWPtyXSJw5ji1atU68wz/uaEiNr/hRwjbtm1LZcuWjc0MWJzqlduPmA7gPLL++7lrTO/nH3id9JnnIGhxVxut7SixcGHaPX3if00Aj/T/fLCWK//Uj3vTpeVK60jzASFEIQdrMJIGAlEl8LFs4Pffr3cX/WsEDHmxqw4BOHuMhg0bEg+qc+MLTwAEL9XVO466JpCrmAoe2/DAo/872xb8267s59tvaPCvAZg1UekxP99Vv+/92abKc/778tojquqKk4OAwwlUFUJkyoqAbz+ej3/BJx/+KwgK9/z5/v++mVOomIGR777zR3q//fbbKSUlJXiUwLeuJfDbzmMwAH4TDP3v5Te1zqD5/cDeRJM+0XK2+0W9AAAgAElEQVTV7wv+E556UFcak4UQJRyuv0geCESdwKhIAdTI7xXKlaWDc37SYgI6tbrN5+CV3xs3bkxpaWmuDXLIWGgC63YfhwHwMwDci8BrEBhpz0a2qVS2FKWN6K3NAGzu9wIlFsyvK308xgkvEACBCAQu1DEWgAXjhjpX0qmls5VMwG/ffBb0USwjghS4Td26dSk5OTl0hMAvriawMSnZUQZg1fYjtCHpOP25/yTtOphCSYdP0Z6jqWfedx5MoS17T9DaXcdIZvCimVsEbR56UleQpQH3tdBiAE4Mf5OuqHCernTxxD9FI+gefgYBEMglMCAweMr+f+fNNyitItbyBrU58X3prly5Mu3fv9/VAQ6ZC09g854TUTUAK7Ydoa17T9Ch5HTKzDK3eNTJtEz6+8gpWrdb/22MhX8coCa3360l2JYqUoiOD3tDyQSc+ugtuqV6JS3pyW3/T0PZQQAEjBNgt6w8L4Av+D52TyvKWb3QdE/A0rEjtIhAfp61bPXq8NEBv7qewLZ9J6NiAH7ffYx4OWKJBSODlklqRtaZHoPlEo81huoZ4FkPK1bRsxpl77ubShuAjJF96PYrqmtp97n6s04Ikc+49GFLEAABJtDGF8B1vP9fm3tNPx549y1aFv2gYcOGBRVSfOktAjsO2GsA+JZDcmqmZZB5dsO/Dp/Sdovg86kLqUCY2SWN6kDJwoXo5PA3TZuArFF9qfXVWh/1zRFCNIScgwAIyBGYZrTRG9nu/qaNKG2ZsUWDeNKfvBqW+b3nnnssE2AcOLYI7D6UYksPAAd+Xn3Qrhevc7B5j57xDa/0Gazl6nt4+ztNGQC+56/5yp/zwQOa8QIBEJAkUF4IccRIcDe6TeP6dQ2tGcA9BkaPGWq7xMRE4pX08AIBJsD30EN1gev4fv1fx20N/IGleuhEunJvAM8RUKe++ribaueVoZzR/QyZgKRB3an2Recrt/cAHdgphOCVTvECARBQIPBgQMNSbqiXXVKR1o0fF3JMAD85UCLx3znYZc///vvvB2ok/vcwgX3HUi0xAH/8nUw8SM8JL172ePWfahMefTF1EfG6B7LtzrffnJcei2gAfu31NJUvkah8Lt85c9+zhRA3KWgedgUBEPAj8FlAA1NusLycaKg5xMf1Vn82uXbt2pSVleUETUYaHELgwPE0rQbA7q5+oxgzsrJJddKjBzr/n3Ib79jgqpAGIHt0P3rn/tsof+76FZr1hZ9iwgsEQEATAZ4/m0fTKotC4DHa3trknAmDbr3uGuXz/PTTT0b1Ett5hMDhE+laDMCmv5MpJc3Z5jIzO4fW7JTvCfhl5Xbl1QML508gvrfvm9XP975zYDe6qdolym08UEty/58rhODVTfECARDQSKCaEOJYiEan1JhLFkuk4d1fODNfwOG504hXFVQ5T506dShH1zNXHgmOXsjmsZQMJQOwaY/zA79/OfLgwNV/ml8AyTceosMTzyq1Q27D3z7Z7qwB4Ef8PnjgDipWUO+Knn5a8ZcQghc1wwsEQMACAk2FEBl+DU5ZIPyPdVX1S+nZB+5XPuaECRP8dRCfQeAMAR6Z7wtuZt65q98p9/jNFiX3VCzdclgq3z8t3UwFChZSao9t6195xgBM/F97XSv6hUrPSSFEPQs0D4cEARDwI8DraYdqhFH/vlKlSpSdnW1WJ7G9BwjwADkzgZ9nDkxJd3ZXv5Fi23tUfvDjPQ88otSmeS7/66tWVDqGAb3JEkK08tMofAQBELCQwOsGGqXVjT7o8Xv16mVEE7GNBwlwl3gkA7Bk8yHiwM9mwU0vfkQxUt6D/T5qwoyg7cxh7f8pC7UOhwYBEAhC4G2HicCZZUO3bdvmJt1GXjQS4JnzggU533d8j99tgd+HLzVd/lbAxZWqOtkEdA+iTfgKBEDAYgJ5Tk+0MdhJJuD666/36R3eQeAcArz8ji/Y+96XbDl0ZtU9twZ+fwi86qAv32ben3juNacagJct1jgcHgRAIAIBXmfbEQIxYMAAf73DZxA4h4D/gDg3X/Gfk3Ei4lsgbHjMBH/eltcIcEobz00HT/TTNYIu4WcQAAGbCDwrhOBGGVWhWLlyZTDdw3cgcJbAyu3/LMnLK+p58cXLEZs1ADw9cMnSZaLatv20JV0I0dYmXcNpQAAEDBK4Uwhxwq+h2ioYJUqUwMx/XoxoJvPMs+R5+SU7F0Lj2+62tT2H0JHDQojGBvUIm4EACNhMoLYQghfhsF0sWrVq5WVdR95BwDCBVRKTA7305ru2t+kAHfldCFHJZj3D6UAABEwSKCmEmBzQeC0Xj9dee82wAGJDEPAygW37zA8G/PibaZa34TCa8aUQorBJHcLmIAACUSLATwg8L4RIDdOotQrKuHHjvKzpyDsIGCZwMNn8mgjTlm/R2l4N6kKyEKJjlDQMpwUBEFAkUEMIsdxgY1cSmOXLlxsWQGwIAl4mYGRCpGADBYuVKKXURk3qwDwhRGVF/cHuIAACUSbAK3O9ZPUAwcOHD3tZ05F3EDBFYPlW8+sD1Kx9tR0G4IgQorMQgnsR8QIBEHAJgfJCiK+EEDkmrwQiik6ePHkw/78p+cfGXiewdtcx048DXntjk4htUaFt83z+I4UQ5Vyid8gGCIBAEAINhBC8Zrc2MSlSpIjX9Rz5BwFTBHiFw2Dd/OG+a9TiLm1tNqD9TxdC1AqiFfgKBEDApQSanH6md2GAEEgJzHnnnWdK/LAxCHidAC94FC7YB/vtjtYdpNpniDbOPYFThRDXuVTfkC0QAAEDBK4RQowXQnAXoJTAVK5c2et6jvyDgCkC2/aZNwD3d3xCqn0GtGt+Muiz048K1zGgDdgEBEDAIwQWBAiFYbG56KKLTIkfNgYBrxPYvMf8LYC72z1suE2GaMs9hBClPaJnyCYIgIAJAj+FEI2IolOuXDmv6znyDwKmCGxIOm76FsBt97SL2BbDtGHu8o8zoQfYFARAwEMEvg4jHmGFp0CBAqbEDxuDgNcJ/C7xFMBNTW8P2w4jtN/jHtIyZBUEQMAkAX4ESFpgjhw54nVNR/5BwDCBFduOmO4BqHFlXen2mbtGiElJwOYgAAJeITBIxQCsX7/esPhhQxDwMoG0zGzTwZ+fCih3QQUVA7DWK0KGfIIACJgn8IKKAZg4caKXNR15BwHDBA6fML8WwOzf/qK8efOqGIBZ5iUBe4AACHiFQCsVA9CnTx/DAogNQcDLBHYeSDHdAzBm4myV4M/7fuQVIUM+QQAEzBOormIAWrdu7WVNR95BwDCBVX+av//fve8QVQPAq4PiBQIgAAJBCSSoTAaE2QAN6z829DCB5NRM01f/fP//9nsfUDUAtwdt9fgSBEAABHIJbFfpBdi6dauHpR1ZB4HIBP7cf1LKAFxYsbKqAagKlQMBEACBcAS+UzEAQ4cOjayA2AIEPEogIyuHlkksAzx+5irV4J+MSYDCyR5+AwEQYAJdVQxAs2bNPCrtyDYIRCYgM/iPu/+ffuUtVQPAq/3hBQIgAAJhCfACIdJik5CQQIcOHYqshNgCBDxGICMrm5ZKXP2zAbi8Tn3pNpnbnl8N2+rxIwiAAAjkdhMeVTEB77//vsekHdkFgcgEZFb/4+D/zYwVlCdPHlUDcD3UDQRAAASMEJBeFIiNw5VXXhlZDbEFCHiIwMk0uZH/bAA6PN5VNfifEkLkN9LwsQ0IgAAIPKnSA8D7zpkzx0PyjqyCQHgC63abX/mPg/+s33ZTseIlVQ3AREgaCIAACBglUEYIkaliAlq0aBFeEfErCHiEwMHkNKnH/tgAPPtaP9Xgz/s/YLThYzsQAAEQYAI/qxgAvme5fPlyj0g8sgkCwQlk5+TQqu3mZ/3j4D9nbRKVKXe+qgHg7v+ikDQQAAEQMEPgYRUDwPveeOONwVUR34KARwjsPmR+zn8O/vz35As9VYM/7/+9mUaPbUEABECACdRUNQC8/+TJkz0i9cgmCPyXAC/5u3TLYanu/2nLNlPRxOI6DMBMIcT5kDQQAAEQMEIgrxDicSHEcR0GoHLlypSamvpfZcR/IOABApv3JEsFf776v6vtQzqCv+8YJ083/DeEELzWB14gAAIgEJQATwK0Skfg9z9G3759PSD3yCII/Esg+ZT8Y39jJ8+jvHFxvuCt8/2307cELg/a8vElCICAZwnkyZ0CON0/cOv6XKhQIdq1a9e/6ohPIOByAmt3HZO++q9Tv6HOoB94rIzTKse9AXGeVTtkHARA4CyBcqoj/o0YhXbt2rlc8pE9EPiHwL5jqdLBv88HYwIDtlX/zxJC8OO+eIEACHiUQL3T9/v3GAngqtvwY4ELFixAjAABVxPIzM6hFdvkH/s7v/xFVgX8YMfdKYS4yqPah2yDgKcJ3C+E4GeEgwmDJd/Vrl2bsrKyXB0AkDlvE/jzwEnpq//OXV+xpN1FaOOsAW09rYTIPAh4jEAPIUROBGGwRIyGDx/u7QihkPu0tDTasWMHrV27lhYtWkTTp0+n8ePHR/Xvl19+oaVLl9L69evPjPPIyMhQyGFs73oqPYuWbPnnGX7fs/xG3yfN/50KFCxkSZsz0M6zhRDPeEwDkV0Q8CSBAQYEwRIh4kcChw4dGtsqb1Pqjx07RhMnTqTXXnuN7r77bqpatSrFWTMyXGtZ83LQtWrVojZt2tBbb711xqScOnXKJmrRPc2GJLn5/tkkfPPLcmp1fwcqklhMa3mYbOu9PamIyDQIeIAAj/QfbFIQlMWoQIEC1Lp1a5o5cybl5OREV6EdfvZ169YRPzJ5ww03UHx8vDJ7u8s61PkKFixIzZs3pyFDhtDOnTsdXgpyyTt8Ml2669+/l2Deuj008KMvqVHzOyk+Pl806gBrBF4gAAIuI3BXKIG24vuGDRvS6NGjKTk5WU5RPbIXd+tzN36TJk2iIfa2nzNv3rxn8sp5zszMdEUps69dveOoFgPgbwZ+Wrr5zGJA1WvVtrucerlM+5AdEACB08/+chefZWJSunRp6tatG23atMkVwm5lJo4ePUqvvvoqlSypvNSrZeVpZV3hY1eoUIHee+89YhMUy6+kw6e0B39/I8Cfv5y2hB7s/DQVL1nKrvJ+HooJAiDgPgLddAt7tWrV6KOPPqKUlJRY1nFb0p6enk4jRoygsmXL2iXkjj8PGwFmEotPiGRkZdOyrXLz/QcGeSP/8y2CXoM+pmo1r7C6XHlgIPca4gUCIOAyAl10PAVQo0YNmjJlCmVnZ9sSPGP9JMyKg51uA+aW411++eUxt4T01n0nLL/6D2YMFm06SP2Hf05VL6tlZX3iNQR4enC8QAAEXEbgISFElkzwKFas2JmuWy8/8mXGjBw/fpwef/xxK4XaNcfmwY98GykWbgucTJOf7z9YUJf5buEfB+iVPoOpWHHLbiXtFkKUdpn2ITsgAAJCiPvi4uJMmYD27dvTvn37zMQ/T287f/58uugiW2d3c4UZ4Emj/vjjD0fXndSMLNpxIIVWbpeb+U8m4IfaZ9ryLdTirjZWlf2PQgh+iggvEAABtxAgom7Tpk0jfkwrUk8AbzNy5EhHC7LTEvfJJ58QPxcfiS1+Dz4wtWjRojR16lSnFWvQ9Bw/lUnb9p20dTxAMDPQ94NPKbFYCSvqXFe36B7yAQKeJ0BEbYnozM37OXPmUJEiRUKKBt+b3bhxY1Dhw5fnEuD5Dnr16hWSJwJ+8IAfjAtPfvTBBx+cC9mh32Tn5NCh5HTamJQsPStgsMBu5rvv5vxKVarX1F3/0oQQtTwvnAAAArFOgIhuIKL/PHvF07mWKHHulcNdd91FXpnJTUdM4ZHsPAtesGCG74wH/kBWPCNirL3SM7OJHxFcY8EcAZEMwaw1u+j6Rs1118OlQoi8sa5/SD8IeJYAEZUloqRgYrpmzZr/PJ7WoUMH10zWEiy/ur/jK//OnTvrFl0cL3fuit69e+suMtuOl5KeRTsPptAKG8cL8ADBO9t01F1/nvaseCLjIBDLBIgoLxH9Ek71eOBV+fLlqUuXLni8LxyogN84+D/11FO6xRbHC5i4asCAAQHkY+tfngz7WEoGbdl7gpbaMH8APy5474OP6qxHyUKI82NZB5F2EPAkgdPd/q8YkcuDBw8a2cwx2yxevPjM9LI8nW60/urXr69TZHGsgMDvuyWQJ08euvnmm6NWzr76pWNNg6zsHDpwPI3W/yW/iFCkWwH8O5sAzT0BIzwpoMg0CMQqASKqdnrUf6pjorbGhEyaNAkBM0TA9AVOvMuPPwjGbsOGDRprMJFvvMCvFo0XWLhxP93Y5DZd7YQfHa4Zq1qIdIOApwjkdv0v1KpYDjqYFwwAL6JzRdXK1K55E3rjiUdoRI+X6Ys+r9P4Ab2j9/faczSu8/30UYe76NXbb6F769aiquVK6woyjj6ObgPg35ySUzNp+/6TtFzzLYJZv+3WOXPgJE+JKDILArFKgIge8xcYt312qwEokJBArZveQt+904cOzf2J6NdFzvubPZHok7f/85c0qDt99mhralazKsXlzevoQB7s6t7Id1YaAF/75EcK9x1Lo9V/6ltp8NsZK6lI0UQdZZKDxwJjNSIg3Z4hQEQFiegvn6i48d1tBqBsyRLU7/+eoCPzpjsv4AczITMm/McA+BuCvwa9Qs83u54K53fXhEh2GABfW+XlhvcdS6UV2/QsOtTngzE6DAAfY6xnhBQZBQEHEqgkhLg13DSdRPS6T0jc+u4WA5A/IR/1fKwTpSyZFRuB398MTPsqpAlgQ3BgSA/qfGM9ypsnj67gE9Xj2GkAfO02MyvnzNMDRgb+Rdqmact7dPDLEEJc5EBdRJJAwBME3sntrtwihOCpOgv755qIShBRsk9A3PruBgNwdY3qtHnS17EX+P1NwPejwpoANgKLuz9JFUufO+GUkW53J20TDQPga78Hk9No6Ra13oBpyzZT8ZKldJiAt/w1B59BAATsIRAvhNgbIIpHhBADhRAXcxKIqLtPNNz8HusG4H/330Npy+bGdvBnI7ByHtEXgyOagCNDX6c7rrxMR/CJ2jGiaQC4LfNAQdVbAt37DtHB7y8hRJw9koezgAAI+Ai0DAj+/o05Oy4u7qdp06YdcnPg9+UtVg0AP9Pe64lHYj/w+/cCLJxGNKZ/RBOQNaovPXnzNf51NqY+R9sAcN3n2QVXKcwsyI8GVqqqxYi18IkS3kEABOwhMCGMATgrpldddRWNHTs2JtZX9wV0s++xagCGvfK8u4K/zwj88GlEA+AbKPhMkwZn66qR+uyUbZxgALidpGZk04pt8ssRD/z4Kx38v7JH8nAWEAABJlBSCMGrcxluvOXKlTuzQt2+ffvMxlfHbx+LBuD1xx92Z/A/cytgLtFngwyZgOzR/ajdNVcarsdm6ryV2zrFAHDjTD6VqbTy4KU1Llflf0wIkQBpBgEQsIdAa1lxy58/P3Xs2JGOHz/u+MBuNIGxZgBa3tCAclYvdK8BYBMw7WtDBoB7AlI/7k11LrpANQjZur+TDAC3k/3H0yjSyP9Qv7/+zkc62DW3R/pwFhAAgY9kDQDvd+GFF7pqoZ9YMgAXnVcudp7v93Xpy7yvmkc09h3DJmBzvxdiaq4ApxkANgGb95yQMgHzN+yl0mXPUzUBH0OWQQAE7CHAj/1JN9hYXFs9XG9ALBmAyYP7u/vK398sTP3SsAHgnoC3771Vuk6rtAeZfZ1oADIys2mZ5PTBD3T+P1X2m+2RPpwFBLxN4EIZwfLfh5f8ddMrVgzAbddf553gz0Zg2SxTBiB9RB+qdl4Z1UBky/5ONADcppMOn5LqBfhi6iId3LBMsLdjE3JvA4GH/IO52c+8bK3bXjNmzKBKlSpZ+peYqD5/+orPR3nLALAJ+OZDUyaAFxcyW6cDty9VqpSldYHr2tatWx3ZjHja4NWSKwpeUrW6Kvv7bdA/nAIEPE1geKDgmfnfbd3/dqnwbbepLaXa5JqrvRf82QCEWSfA9yig/3vmqL7KMwU+99xzdlULR56H1w0INeAv3PftHumiagDe87QyI/MgYAOBOWYCfuC2c+bMcaRoOTlROTk5VLJkSSVx/Kb/m940AEvN3QZgM9CrVWMl1m7s5TLTPngVweUSCwcNGfOdEnchxC826B9OAQKeJvB3YFA3+n/BggUpNTXVjJZgWx5dvXmzkjAWK1KETi2d7U0DwL0An0eeHti/F2Db2y8q8U5ISKCMjAxP193t+0+a7gWYszaJ4uPzqbDf42llRuZBwGICiUaDfbDtbrjhBk+LomzmJ06cqCKKdPctN3o3+LMBmPSJqXEAbAaqn682GNCpg/Rk66DZ/Y6fyjBtAPj2QNXLainVdSFEKYs1EIcHAc8SqBcssBv97rHHHjOrI9ieiPr166ckih+8/Ky3DYCJSYF8PQFdbrlWifl3333n6brLgwFlHglsee+DStyFEFd7Vp2RcRCwmMADRoN9sO0GDRrkaVGUzfyTTz6pJIpLx47wtgGY84PpHoCxj7ZWYj548GDZ4nbNfhuTkk33AjzTvbcSdyFEK4s1EIcHAc8S+L9ggd3od1OnTnWNuNmZkVatWimJ4tH5P3vbACz+xbQBWPaa2oj0l19+2c4q4shz7T6UYtoA9P3gU6W6LoR40rPqjIyDgMUEuhsN9sG2+/333x0pVE5PVMOGDaVFsWSxREuD//+1uZfqXlYtKn8Du3Yxlrfls00bgIPv95BmznX/kUcecXq1sjx9h5LTTRuA0d/NVOJ+Wv/esFgDcXgQ8CyBvsECu9HvduzYYbnouPEEdevWlRbFS8qfbyxI8mA5ib/mDa6RTpvRehNqu6fb3mcszSvnmTYAGSP7KOWrXbt2bqyKpvJ0IjXTtAGYNG+tEnchxDueVWdkHAQsJvBBKDE28v3hw4dNCQg2/odAzZo1pUXx8iqVjQVJieDPhiEmDADn7fTz/Wb/CuSLl+Z+1113eb76pmVmmzYA05ZvkWaeq0HDLNZAHB4EPEvgUyOBPtQ26enpnhdFGQCXXXaZtCjWqX4pDAAbgDH9TRuAIvkTpLnzuA2vvzKzckwbgLm//y3NPFd3PvGsOiPjIGAxgS9DBfdI3+fJk8dVSwDbKe4wAMFXnjR8CwAGwM7qevZcWdnmDcCCjftUDcBYizUQhwcBzxIYGSnQh/v9+PHjZ8UBH4wTgAGAATBeW5yzpcwtgOkrtqoagA89q87IOAhYTGBwuAAf6be//vrLOeoUQymBAYABiKHqejapKWlZpm8BfDd7taoBGGCxBuLwIOBZAr0jBflwv3t9etSzymjyAwwADIDJKuOIzY+lmJ8OeOzkeaoGoKdn1RkZBwGLCXQLF+Aj/bZ48WJHCFOsJQIGAAYg1uosp3fPUfPLAg/7fIqqAXjeYg3E4UHAswQejxTkw/3+2WefxaKORT3NMAAwAFGvhBIJ2LbP/IqAr/QZrGoAOnlWnZFxELCYQNNwAT7Sb5geVUJFiQgGAAZAruZEd681O4+aHgPQ5iG1dS+EEDdarIE4PAh4lkClSEE+3O+33XZbdBUpRs8OAwADEGtVN11iEiBeDrheg5tUewDKe1adkXEQsJhAnBAiPVyQD/fbxRdfHGs65oj0wgDAADiiIppIxL5jaaav/tkAlCpTTsUAnBJC5LFYA3F4EPA0ga3hgnyk33bt2mVCRrApE4ABgAGItZawbvdx0wZAwyOA6z2tzMg8CNhAYHKkIB/u95EjR8aalkU9vTAAMABRr4QmEnAq3fzz/3z1/0KvgSpX/7zvBBv0D6cAAU8TUHoU8J577jEhJdiUCTjZAERaDjhfvPyCOkULFQq7zLDh5YAxFbCtDUlm9D8bgAY3N1U1AM96WpmReRCwgcD14a7wI/1WtGhRwqJA5vTYyQYg0hLC5cuWkRb1m6+uo28hIywGZK7SSW7NV/9Lthwy3f0/b90eKliosHRdydWdq23QP5wCBDxNIL8QIi1SoA/3+5QpUyTlxZu7wQAsUjcCMAC2NJ5NfyebDv589d/3g09Vg/9JIUS8p5UZmQcBmwgsDBfgI/2GxwHNaTEMAAyAuRoTna2PnEyXCv5sAK6+7kZVAzDLJu3DaUDA8wTeiBTkw/2eN29e+vPPP6OjUjF4VhgAGACnV9uMrGxasf2IlAH45pflxMuFh9MMA79197wqAwAI2ESgpoEGGbZBd+vWzema5pj0wQDAADimMgZJSE4O0YYk84/98ZU//7Xp9FRYrTCoNVVs0j6cBgRAQAix0WDDDNq4S5YsSUeOHAkiJ/gqkAAMAAxAYJ1w0v/b95uf898X/Kct20xFiiYG1QgT+vIbFBkEQMBeAm+aaKBBG/hLL73kJB1zbFpgAGAAnFo5dx9Kker29xmA1h0fD6oNJrXlVXulD2cDARC43GQjPaehFyhQgHbu3OlUbXNMumAAYAAcUxn9ErLzgFrw/3bGSsqXL+EcXZDQlWqQYxAAAfsJLJNorP9p8O3bt/eTFHwMRgAGAAYgWL2I1nfZOTm0ec8JpSt/7gFo1PzO/2iBpJbMt1/2cEYQAAEm0E6y0Z5t+Dz6d+rUqdHSspg4LwwADIBTKiqv8vf7rmPKwb//8M/PaoCihtwNKQYBEIgOAZ54Y7diA6ayZcvSvn37nKJxjksHDAAMgBMq5cm0TFol+aif754/v/+0dDOVLC0/Q6Sf3uwQQvAKpXiBAAhEiQA/f6vs5u+8804naJwj0wADAAMQ7Yp54HgaLd1yWPnKf9Gmg9TwlmbKepGrOZj7P0qij9OCgI9AKSHEcR0mYPjw4dHWOUeeHwYABiBaFZOf8d95UG2wn//Vf9fX+uoK/oeFEMV8IoR3EACB6BF4TYcBiIuLox9++CFaWufY88IAwABEo3JmZOXQ+r/kJ/jxD/z8eeDHX1FcnPzqkAEa83z05A5nBgEQ8CdQUMdYAG7ghQoVoqVLl7kgrS0AACAASURBVEZD7xx7ThgAGAC7K2dKWhat/lNuat/AwM//j/5uJhUoWEjX1T/f++dFyfACARBwCIGHAxy6dGMvV64cbdu2zW7Nc+z5YABgAOysnAeT02npVvX7/T4j8PXPy6h4yVLSehBEVx5wiOYhGSAAArkE8goheEpOLQ39/PPPpzVr1tipe449FwwADIBdlVN1Zj9f0Pe9j5k4m0qUKq1FE3K1ZYUQIg9UFwRAwHkE6gghMnSZgCJFitCMGTPs0j7HngcGAAbA6sqZlZ1DG5OSlUf5+wI/vw8d9wMVLlJUZ/DPFELUdZ7sIUUgAAI+Ar11GQA+Tv78+WnChAlW65+jjw8DAANgZQVNTc+iX3cc1Rr833xvFOVL0DLNr7+B6OkTGbyDAAg4kwBPDrRKpwng2QJ5+eDs7GwrddCxx4YBgAGwqnIeOZlByzXe7+fn/J968XXKmzevf+DW8flXIUQ+Z0oeUgUCIOBP4EohRLpOE8DHuuuuuyg5OdkqLXTscWEAYACsqJxJh09pveqfsXoHNWx0q45gH3iMVCFETX+BwWcQAAFnE9D2VIC/kbj00kvpjz/+sEIPHXtMGAAYAJ2Vk+/3b9qj934/r+xXsUq1wMCt6//OzpY6pA4EQCAYgQ/9g7euz4mJiTRlyhSdmujoY8EAwADoqqBpmdm0VsNiPv6D/d4d/S0VTSyuK9gHHmdwMGHBdyAAAs4nwOMB5ugK/P7H4VkD+/fvTzk8V6nLXzAAMAA6qvjxUxm0Ypu+yX3YBPDUvnnj4gKDtq7/ZwkhWEPwAgEQiFECpYUQe/yDt87PHTt21KGNjj4GDAAMgGoF3X8sjZZsOaTtnj8P9mt2x326An2w4yQJIUrGqOYh2SAAArkEmgkhsnQGfd+xSpYs6Yl5AmrWrBlMIA19d0XVykS/agigkscoX1Z+2debr66jL+2fvE1k8q9gQj5DjH310f+dB6w66ZVuQdf/4E8mWNn1z5rRAioKAiAQuwSqCSGO+gujrs/VqlWjTZs2OUljLUtL/fr1pQNR5Qrl9QVRCRPgCAOwcr7p4J81Sm3Vug4dOlhWH2QPnJ2TQ1v2ntDWC8C3AMbPXEWVql4mXT8j6MERIUSV2JU/pBwEvEsgUQixIUIDlxKOli1b0vHjx2V1MOb2a9KkiRQnZl+2ZAkYgOWzTRuAI0Nfl2bO3Lt06eLYerbnSCot2azvdsCsNbvopmYtlXiF0Yk/sOyvd4MIch6bBHhdgOlhGrWUWPDkIm+++aYnBv75Rw/uTpZlyZMonVg0M2omwBE9AEtmmDYAv/Z6Wpo5lxVPXOXk15GT6donAHr4fy8R1zfZuhpmv8mY/z82AwFS7U0CXcM0ZimB4HUBJk6c6GRNtSxtjzzyiBQzXxn8+tUYbxuAuVNMG4Cvn2irxHzAgAGW1QddB07NyKI1mqcAHvjxV1SkaKISO1+9DXh/wptSilyDQGwRqCqESAlovEqCULVqVdqwYYMu3Yu547z99ttK/D7p1d3bBmD6N6YNwEvNb1RiHitmlScF+uNvvZMCfT51IZW/qKISvyD6kSyEuCS2pBCpBQFvEeCu/wVBGq+0GNSrV48OHDgQc0FbZ4I5mKgwbX/brd42AD98atoA1L24vBLzjRs36qwClh9L97TA01dspVp16ikxDFLnFwkhWGPwAgEQcCCBF4M0WmkRaNGiBZ08edJy8XP6Cbj3Q4XreaVKUtaqBVExAY4YA/DF+6YMwL7Br1GcwmI28fHxlJ6e7vRqdU76DiWn01KNCwPx4MB6DW9WqrtB6v3TDtQ9JAkEPE/gPCHEiSANVkoA+DGqjIyMc0TKi19wMClUqJAUR195/Pzhu940AMvnmAr+PFfAkHZqI9pr1aoVs9U0JS2LVv+pb7bAeev3UNOW9yjVXV8dzn0/JoTgycXwAgEQcBCBkQENVbrR33HHHZSVlRWzImpFwps2bSrNk8vl/qaNvGkAZk00bQBqX3S+Euunn37aiipg2zEzs3Jo/V/Htc0XsHDjfrqp6e1KTAO05X0H6R6SAgKeJ1BdCJEZ0EilGjxPepOSkmKb2MXKifr16yfF01cm3KW95YdvbDcBUb8F8N0IUwZg2rOdlDgz70mTJsVKtQqZTl5hY+fBFG0mYM7aJJ1jAjKEEDzYGC8QAAEHEJjqCzQq71WqVPH8gL9Qirxs2TLlwPRwq9u9ZQBWzCUa09+wAcgZ3Y+uq3yREmdepOrIkSOhijHmvt9/PI2WbjmsxQhMW7aZLqxYWYmvn75McIDuIQkg4HkC9f0apXTjLly4MG3evDnmBNKuBGdnZ1OFChWk+XIZ8URKSz772FYTENUegF++NRz8+d7/2EdbK/Flxo0aNbKrSth2npNpmbRqu55xAV/+tJjyFyigzFkIkSOEuMLz6gsAIBBlAl/pMAAjRoywTdBi9UQvv/yysnDWrlaV0pfPtc0ERM0ArF5I9PlgwwbgwJAeVC6xiDLfMWPGxGr1CpvujKxsWrdbz7iA53qozWvhpzefRFn7cHoQ8DSBC4QQfD9OSTj5cb+cHL7riFc4AqqPA/rKqesDrd1vAGZMMBz8uev/jivVF7QpWLAgHTt2LFwRxvRvvJjQtn3qiwnxUsINblYb1Jpbl9OEEOU8rcDIPAhEkUAfX1CRfS9Tpgzu+5sICzwxkixr3348X/sXfV63xQREpQdg9QKiL4xf/fe8o5EyU2bbvn17EyUZu5vuOZpKS7aoLSY0ZdEGSixWQgf316Oofzg1CHiWQAEhxEFfUJF9HzZsWOwqYRRSPn78eB2iSfni42na0EGWm4CoGICfvjR89f9xR/mFlvzrPJuqtWvXRqFGROeUx1IyaJnipEHPdO+toy7vFULk86wKI+MgECUCd/oLoMznSy+9FJP9mNRvHgxYs2ZNHcJJ+RPy0Xfv9LHUBNhuAJbOIhozwJABGPZgK8qrafU6XrHRa68TqZm0Ypv84ECeJEjTmgHNo6SBOC0IeJbAFzJB33+f77//3muaqSW/48aN02IAuCzi4+JoePcXLDMBthoAHvj3zYcRg3/mqL6kutiPfz3mzytWrNBStrF2EJ45cLlCT8Cb743SUZcxGNCzYQgZjwaB/EKI44EiaOb/q6++GgP/JNWeZ0msU6eODuE8e4x2zZvQ8YW/aDcCthqAKeMiBv+kQd3pxksvOZtvM3U21LZt2rSRLEl37Ma3A2TnCuABgVUvq6VaHodxGyAaYQDn9CqBVqHE0Oj3fBWLlzwBvuLk5/qN8jay3fmlS9HYt3pQDl9J/7pIy59tBmD2pLDBn6/6eY7/xIL5tTIrWrQoJSUlyRekS/bkgYGLN8sNDHylz2AdZXKrV8UY+QYBuwmMMRJQQm1TqlQpSk1NdYn0RS8bnTt31iGc5xyD5woYP6C3FiNgiwGYP5Xo0+Az/mWM7HNmgp9q55U5J5+h6qeZ7997773oVQCHnXljUrKUCZj1224qklhMtXw+slsEcT4Q8CqB7WZEMnDbl156yWHSFZvJOXz4MF144YWqwhly/8oVytMbTzxCG7//Qro3wHIDsHA60acD/3P1nz26H63o8T96rtn1dF6xoiHzF1gvzf5/7bXXUmZmZmxWHgtSnZ6ZLT0eoHXHx1XLaYNXxRj5BgE7CfCyv0qNddOmTRbIjzcPuWjRIuL151XLJNL+F5QpTQ+0aEp9//f4mScHFo4ZTr998xlt/3F82L9ypUpKp+2aWjXCHnv716Np9RtdaX63x+nrJ9pSr1aN6e6ralLJwmpLJ0diwb+XLFmSdu7c6c1KFybXSUdOSfUCjPtxgXQ9yS0vnhq4lJ1CiHOBgBcJ3GdEIENtw4/+4aWXQP/+/VXFE/ubMLX8zL8bVvzTWwv/ORpP6Ln6z6NSJuCCCy9WrYd3eFGQkWcQsJPA4FDB3cj3Xbt2tUJ3PH1Mnkb5/vvvVxVP7G/QBPTs2dPT9S1S5vdKDgi8u93DqnWwv51CiHOBgBcJLDIS6ENtM3369Ej6gd8lCKSnp1OzZs1UBRT7RzABHTt2xOOrEepnVnaO1CyBAz/6UrX+zfGiICPPIGAngX2hgnuk7wsUKIDR/xHEU+Xn5ORkqlu3rqqIYv8QJuCOO+7AoD+DFXTbvpOmbwPw0wDx8flU6t9uO4UQ5wIBrxEoEinIh/udJ6/By1oChw4domuuuUZFRLFvEANw7733wryaqLpHT2aYNgA8j8AlVaur1L9sIQSvUYIXCICABQRqhwvwkX7zymppJnTSkk1PnjxJvMRypPLA78aeZnn44Ydx5W+ypvLSwTKzAzZqobw402UW6B4OCQIgIIS4VyVovP322yZlBJvLEsjIyCAOXCrl5fV9eabFPn36yBaB5/fbkHTcdC9A52e6qdbZllBqEAABawh0VQkKkydP9rwo2g1g7NixVLhwYVVR9dz+ZcqUIQxYVautOw+mmDYAfT/4VLWudbFG+nBUEACBnioGYNWqVWqKgr2lCKxfv17bEsIq5R8r+zZu3Jj27NkjxRo7/UvgwPE00wZg5Lc/qxqAlyHTIAAC1hDg52ylG+iWLVv+VQd8spUA3xIYMmQIFSlSRLr8VMo+Fvbl2f2YUXZ2tq1l49aTJadmmjYAX/60WLV+vmmN9OGoIAACQ1WEfN++fW7VupjJF09fe8899xDPZqdSlm7aN1++fNSlSxc6cuRIzJRjLCT0VHqWaQPww4J1qvXyXcg0CICANQQ+VRF+rADoHNn+/fffqUOHDhQXF6cquDG7f0JCwhkG6Jmypl5mZGabNgAzf92pWp9GWCN9OCoIgMCXsgaArzh5ylq8nEVg48aNZ65+uftbtmxjbT9eQbF79+6UlJTkrMJwWWoys3NMG4CFG/er1sOxkGkQAAFrCIxSEfu0tDSXSZx7ssNTCfMCNzzhTWJioqoIO27/smXLUqdOnWj27Nm4x29TtU3NMN8DMGvNLtW6M9wa6cNRQQAElBYCOnr0qE3Sg9OoEOA17pctW0b9+vU7M6FQxYoViZ+JVzF/du7LyyNXrVqV7r777jOD+tatW4feJ5UKIbnvCYlBgFOXbFKtZwMh0yAAAtYQ6KMi5Lt27ZKUEuwWbQKnTp2i33777Uwvwbhx42j48OHEyxBzV3q3bt2i8tejR48zaRgxYgR9+eWXxPNM/PHHH8RPPOAVfQJHU8xPBzx+5ipVA/C6NdKHo4IACHRXMQCLFi2KviohBSAAArYQkFkWeOi4H1QNwPOQaRAAAWsIPKViAL766itbhAcnAQEQiD6BrXtPmB4E2GPAh6oG4FFrpA9HBQEQuFXFAGBe9eiLMlIAAnYR+HXHUdMG4NGnX1Y1ALdApkEABKwhUEXFANx33312aQ/OAwIgEEUCmVnmHwHk5YCvb9Rc1QBcaI304aggAALxQogMWRNQuXLlKEoSTg0CIGAXAZn7/2wAyp53gYoBSBVC5IVMgwAIWEdgi6wB4MmA9u/fb5cG4TwgAAJRIvD77mOmu/8nL1yvEvx53/XWyR6ODAIgwAR+lDUAvB8/roUXCICAewmkZphfA4Cv/nv0H6ZqAL6HRIMACFhL4FUVA8CzseEFAiDgXgLb9580ffXPBqDZHfeqGoAXrJU+HB0EQOB6FQNQunRpTNTiXu1HzjxOgKf/XbLlkGkDMG/dHiqaWFzVAFwDeQYBELCWQH4hBA+2kW6sU6dO9bhMIvsg4E4Cm/eYf/afr/77DRsrrSe5WpQihEiwVvpwdBAAASawQMUAtG3b1p3qh1yBgIcJHJOY+peDP//d1KylqgGYDWkGARCwh8CbKgYgf/78tHfvXg9LJbIOAu4iwM/9r9p+xHTXPwf/SfN/p/j4fKoGoIc90oezgAAIXK5iAHjfnj17uksBkRsQ8DCBP/5Olgr+bADaP/aMavDn/S+DLIMACNhHYKOKCShTpgydOHHCw5KJrIOAOwjsOpgiHfxnrN5BicVKqBqA3+2TPZwJBECACbyhYgB437feessdCohcgIBHCSQdPiUd/Pnqv1OXF1SDP++P7n/EJBCwmUB1VQNQtGhRzAzo0cCBbMc+gT1HUpWC/09LN1OhwkV0GADWIrxAAARsJrBM1QQ8/vjjsa+EyAEIeIhAdk4O/Sk52Q9f9fv+brunnY7gv9hmzcPpQAAEcgm0VTUAvD7A7NmzPSSfyCoIxC6B9Mxs+n2X+Xn+fUHf9z7s8ynEbV9VP07P/38f1BgEQCA6BPIJIf5SbcTVq1enlJSU2FVFpBwEXE4gJ4do37FUWr7t8NkreF8wN/s+67fddGHFyjqC/04hBK9QihcIgECUCHRTNQC8f+fOnV0uocgeCMQmgaMpGbRmx1HlwO8zCi3ubqsj+PMxMPd/lEQfpwUBH4GSQohkHSYAKwXGZoBAqt1J4FR6Fm1Mkn++3xfw/d9fe3uoruB/TAhR3CdCeAcBEIgeAX4MR7lhFypUiJYvX+5ONUWuTBFYu3YtNWnSxJV/zZs3p9atWzv2b9So0bTzYIrUoj7+wT7w88ffTKOE/PmVdSJXa7pHT+5wZhAAAX8CBYUQu3WYAF4tcOvWraaCBTZ2H4F58+bpChQ4jklzfn+Hztq6+30m4LvZq6lEqdK6yiJJCFHIX4DwGQRAILoEHtFhAPgYFStWpB07drgvqiFHhgnAAKj3qMm2x3vb6zUAk+atpfIXVdQV/Pk4HaMrdTg7CIBAIIE4IcRaWdEJ3K9KlSqUlJRkOGBgQ3cRgAFwhwGYOPc3Or/CxTqD/xohRN5A8cH/IAAC0Sdw7elpObMCg7ns/9wTsHHjRndFNuTGEAEYgNg3AJ9PXUjlLqigM/hnCiHqR1/mkAIQAIFQBPrLBvxg+xUvXpzmzJljKGhgI/cQgAGIbQMwZMx3VKRoos7gz8fqG0p08D0IgIAzCOQXQvDqXNoaf3x8PPXq1Yuys7PdE+GQk7AEYAD0tR+zbVFlDMCiTQep62t9KT4+n7b2n5v+DUKIAs6QOKQCBEAgHIG6QgjurtMqAi1atKC9e/eGDRz40R0E5s+fr7Xu6K6Lbj7evQ8+KvUUwOSF66leg5usKLcMIUSdcIKD30AABJxF4HkrRJJvCQwZMgS9Ae6I8yFzgR4AvebZTFs02wPAV/09BnxIicVKWBH8+ZjPOEvakBoQAAEjBMaaER4z2zZo0IAWLVoUMoDgh9gmgB6AKBoAEz0AH37xI9W4sq5VgZ+PO8aI0GAbEAAB5xHge3bKSwaHMwYtW7aklStXxna0Q+rPIQAD4GwDMGr8L3TtjU2sDPx87KVCCB5ThBcIgIADCJQVQlQy+Xe9EOJ4uCCu47eGDRvShAkTaPv27fhzAYOvv/7a6uCC44cYo3Nrq9Y0YdbqoH+9h4ymWnXq2cGONYO1w6zelHaATiIJIOBKAt/oCNY4RvSu7sAe7F1eB4a6UnmRKRBwAAEYgBBXTS4XVTuu+HAO1C0ddQAGwAGBAklwJwEYAIi0DpHGMVCPrKoDMADujD3IlQMIfI0rXXQhx0IdKBAfT4n588f+X0ICJebLZ+qvaD7tk/BYFaytOO4wB+gkkgACriSAHgBcuVkh2tqP+XqDBrThkUdi/m99p060pkULU3/zm1g+Ol97eWk0legBcGXoQaacQAAGAAbAyeJ/Nm2uMQAPPWQq+LNZgAFwglQiDSDgPgIwADAAZ4Osxqs27ceEAfDsrSr0ALgv7iBHDiEAAwADoD1YW2EkYABgAByimUgGCLiGwLdWiDWO6VmxtsxMwAB4tk6hB8A14QYZcRoBGAD0AFgWtHUaQRgAzxqAD5wmmkgPCLiFAAwADAAMgI1PF6zHIECz9Q0GwC3RBvlwHAEYABgAs4Icle3RA4AeAMepJxIEAjFOAAYABiAqAd3s7QEYABiAGNdaJB8EHEcABgAGAAbA4bcAFnh7IiDcAnBc2ECC3EIABgAGICYMQE+3zAQoMQYABsAtcot8gICzCEgbgLx58tCjV1yBPzAwVAdaVq6sZDRgAORvAVxWqpShMorYnmvVoocrVTL190DFikrlLoRAD4CzYgZS4yIC0gYgPm/emJ+X3Q1zy8dKHsbdfrtSIIABkDcAbatX19JWZZ5gmKd++wIGwEUBB1lxFoHxZgdj+baHAYj9hWnsNA8wAP/UF5kgqnoLAAbAWaKL1ICAUwjAANg4AMzOgOu0c8EAwAD4Lh5Mvr/vFLFEOkDAbQRgAGAAtHQPRzIcMAAwACYDv++WEQyA26IO8uMYAjAAMAAwADbWAdwCMD2WAQbAMeECCXEbARgAG8U/0lWym39HDwB6ANAD4LbwgfzEOgEYABgA9ADYWAdkegAWNm3q6w6Xeo/xQYDoAYj1KIP0O5YADICN4u/mK/xIeUMPgHwPAAyAY/UTCQOBmCYgbQDyYR4AW66cIwXWWPn9c8V5AHpcd50reEejB6BNbM8DgB6AmA4xSLyTCcAAoAfAlsAKA5DbA9CpE61p0cLUn2oPQDQNwNzGjaVuW/iNF4ABcHIEQdpimsAEv4ZmqqGiB+AfQY+VK/BopxMGAAZAUmtgAGI6xCDxTiYAA4AeAPQA2FgH1qMHwNSFhhBiiJMFFGkDgVgmAANgo/hH+yo8mudHDwB6ACR7AGAAYjnCIO2OJgADAAOAHgAb6wB6AExPBAQD4OgQgsTFMgEYABvFP5pX4NE+N3oA0AOAHoBYDhVIuxsJwADAAKAHwMY6INMDsEhxIqAYfwoAPQBujDzIkyMISBuAhLg4WwJHtK9ccX49TzugB0C+BwAGwBFaiUSAgOsIwADYePXnZTPxBSYCOmOY0QOAMQCuiyLIUMwS+E7yvhyhB0DPlbFXTAEMQG59kXgMULUH4P4ozgSoYSIg3AKI2fCChDudAAwAegBsuZUDA+BNAzBHfSbAwU4XUaQPBGKVAAwADAAMgJ11wGM9ADAAsRoakG4vEIABsFP8PXwu9ACgB0DydiN6ALwQiZDHqBCAAfBwULZz/AEMAAwADEBUNB4nBYGQBGAAYABwC8DOOoBbAGbXAkAPQEj5xg8goEZA2gDkxzwAtgROO6/SrTwXegDQA4AeADWxxt4goJsADICdV38ePhcMAAwADIBu+cbxQECNAAyAh4OylVf8gceGAYABgAFQE2vsDQK6CUgbAEwElCvoMBCGboX8+tBD9Evr1tJ/yzt0MHSeQOPhuP+jMAagdbVqWtitf+ghWtOihak/PAaoW7JxPBDQR+B7SVdOGAMAA+C44BoLZsxjBmC2+kRA7+mTOxwJBEDAnwAMQCwEDaRRyxWsIwwLDIDZpwBgAPwVG59BQCMBGAAEV/cE11goSxgAGACNAo5DgYAKARiAWAgaSKN7TAoMAAyAimJjXxDQSEDaABTAPADuCUowGPaVJQwADIBGAcehQECFAAwAgp99wQ+saQMMAAyAimJjXxDQSAAGAEEJBsDOOiBhABY3a2Y2aP5n+2g+BoinADSqNQ4FApoJwADYKf44F8wGDMB/zImBx5DxFIBm0cfhQMBHYKKBBhi0wWIMAOYBcMRjdbFmqqJgAO6L4kRA6AHwSS3eQcB5BGAAYi2AIL0x3Yuw3mMGYFajRkEvIExceLzrPNlEikDAHQRgABBQYzqgxlovBAyAMGsIYADcEWuQCwcSgAGAAYABsLEOwADAADgwDiBJHiUgbwDi4xE4bAwcsXali/QGHyMCAwAD4NFYg2w7kIC8AcBEQDBAJgzQsvbtaXTz5tJ/s9u0cQVvGQOwRPExwPsuvVQLO5nVADUMAsQtAAcGDiTJHQTkDQB6ALSIqleulL9q2dLsvd//bN/92mtdwVvGAKjOAxDNpwAwCNAdgQK5cCcBGAATV7FeCdZW5BMG4J9bAjIGQLkHIIqPAcIAuDNwIFfuIAADAANgy5U1DAAMgIlH//x7f3ALwB2xBrlwIIFJko2SCuAWgC2B04qr8WgcEwYABkBSa2AAHBg4kCR3EIABQA+ALUYGBiCKBiCKgwA13AIY5A6pRS5AwHkEYABgAGAAbKwDURkDAAPgPOVFikDAAQSkDUBB3AKwJXBGo7veinOiBwA9AJK3ANAD4IBAgSS4kwAMgI1Xf1YE1lg5JgwADAAMgDuDCHIVuwRgAGAAbOnJgAGAAYABiN1AgZS7kwAMAAwADICNdQBjAExPBYxbAO6MPciVAwjAANgo/rHSXW9FOlV7AF655hpbjIoVefc/powBWBrDUwHjKQAHqDySAAIhCPwg2S1HGAT4T5euv7jjc2gmMADytwBgAEKoF74GARBQIgADgB4AW66sYQBgACQvNt5RUjjsDAIgEJKA9C2A/HFx0iu7qawKh33lV9SLJrvXrr3Wf3pX059xC8D0vfOzjK+vUEFLWx3VrBl9XL++qb8BtWufTYekAcAYgJDyjR9AQI2AdA+AZGNWFQPsL+QDQSyXGQyAN8tdCIEeADWNx94gEJIADIBHA2qsmQEYABiAkCqGH0AABKQIwADAAMRErwoMAAyAlMJhJxAAgZAEYABgAGAAbBwIGo3HAGOttycgvbgFEFK+8QMIqBGAAYABgAGAAXByHYABUNN47A0CIQnAAMAAOFn8z6atGyYCOssi4ArZ7d/DAISUb/wAAmoEJntMTNwulq7Nn5cNwDLFmQBjvI3DAKhpPPYGgZAEYADQAxATpgEGwLODAAeGVC/8AAIgoEQABgAGAAbA4WMAPN4DAAOgJPHYGQRCE4ABgAGAAYABcHIdgAEIrd/4BQSUCMAAwAA4WfzPps0ttwA2dOpEa1q0MPWHHgAljcPOIAACIQjAAMAAnA2yTh4sBgOAMQAhNAxfgwAISBKAAYABgAGw8RYAegBMGxncApAUd+wGApEIwADAAMAAwAA4uQ7AAERScfwOApIEYABgAJws/mfThlsApq+cz7Jz8q0dA2mDAZAUd+wGApEI3CqEeDz3r5+BxmhaVBISEuitNAwyKQAAGm1JREFUt96iESNG4M/DDLp372667vjXRy8bgOW33qrErmHDhqbaXr93h9LLb70X9u+xrt0pX0KCUrr8yzfg8wA/XbomkojhdxAAATUCRYQQawMaoXLjLlGiBM2ZM4fwAoEVK1Yo1ScYAPkegEceecR0Bdxx4CQt3nwo7N+Ib6ZTiVKllco1hOb8IYQopiZp2BsEQMAIgbxCCO1rAlxyySW0ceNG08KDHdxJAAbgEdrAYw0kHgNU7QGQMQBcC7ftOxHWALBB+G72aqpYpZoVJmC6ECLOiIBhGxAAAXkC2rv+r7nmGtq/f787IxlyJUUABiD2DEAOEW3akxzRBPyycjvVuLKuFSagr7ysYU8QAIFIBB4QQuSE6IaTatBNmjShlJQUqSCBndxLQNUAvFy//j9X0HaO2LfiXFHoAXj44YelK1ZODtGGpOMRTcDMX3fSlVdfK6UZYfSHtaltJBHD7yAAAuYJVBdCnAzT+Ew35hYtWlBqaqq02GBH9xJYuXKl6frkXzdhAOTHAKgYAK6RWdk5tGbn0YgmYNZvu+nq625UKmf/Ms/9fEoIcaV5ecMeIAACoQgU0D3o74477qC0tDT3RjDkTIkADED0bgGoGgAu+LSMbFqx7UhEEzBnbRJde2MT3SZgoxCiUCgxw/cgAALmCHwUxGlLN9rGjRsj+CuFR/fvDAMQ2waAa+jxU5m0ZEv4JwN4YOC8dXvo2hsaS+tJCG0aYU7isDUIgEAwAveFaGBSDbZevXqUnJzs/giGHCoRUB0DgMcA5W8ByD4FEKzA9x5NjdgLwCaAewKuqKt9TECbYIKG70AABIwRqCiEOKbLANSoUYMOHToUTCfwHQj8hwB6AGK/B8BXoNv2RZ4jgE3Azyu3UeVLa0hdWITQqMNCiAuNSR22AgEQ8CeQRwgxO0TDMt1IzzvvPNq9e7dPE/AOAmEJwAC4xwDwkwHrdh8z1BMwaf7vVLrseab1JYxOzcP8AP6yjs8gYIwAT/mrpSEWLFiQli1bFlbw8SMI+BOAAXCPAeByTc/kQYGHDZmAMRNnU4GChbRoT66GvWxM8rAVCIAAE7hACHFUhwHIkycPffnll/7ajs8gEJEADIC7DAAX+JGT6YYMAN8OeGfE15Q3Lk6XCeBHAytB2kEABIwRmKoj+PMxevXqFVHssQEIBBKAAYieAejUqVNgcWj7/8/9xsYDsAno/Ew3XQaAjzPNmPRhKxDwNoH2uoJ/y5YtKYdvAOIFAiYJqBqAlzw8E+AKxdUArTQA2Tk5tGZH5EmC2AAs/OMAXXeT1jkCWntb2pF7EAhPoKQQ4pAOA3DhhRdixL/JoIfN/yWwatUqpas/1xiAhx+mNS1amPpzsgHgEj6ZZmx+ADYB01dspfPLX6RUF/z07G+sGhg+AOBXbxP4wK+xSDe6+Ph4Wrhw4b9qjk8gYJIADEDuLQAXGgCuCrsOphgeD/DJ97MoX74EaT0K0LSh3pZ45B4EghPguf4zAhqLVKPr16+fSbnH5iDwXwKqtwBcsxaAhAFQXQ5Yx1TA/y3Nc/8zcyuAewKeevF1KS0KomfZQohrg0sgvgUB7xLgQTLKjaxp06aUnZ19bovHNyBgggB6ANzdA8BV4fipDMO9ADweoHa965T1KVfjlgsheJ4TvEAABIQQTXQE/8TERNq1a5cJmcemIBCcgGoPAMYAyJt5KwcBBpb21r0nDJsAniSoaGJxXSYA0wQj9IGAECJeCLFBhwEYPnx4YPvG/yAgRQA9AO7vAeCKkZmVY3iCIL4V0KP/MF0GYLsQIgERAAS8TqCLjuB/00034ZE/qVCHnYIRgAHwhgHgsje6YBAbgEWbDtLV192oywQ863XxR/69TaCAECJJ1QAUKlSItm7dGkzH8R0ISBGAAfCOAeCZQozODcAm4JsZKyghf34dJuCgEKKIt0MAcu9lAs+oBn/ef9CgQVIij51AIBQBVQPwYr16tOGR3CAay+8STwGsbN5cKTg+9NBDoYrFsu8Pm5gmmE3A48++qpRHP9170csBAHn3LoGCQog9fg1BqkFVr16dMjIyLBMGHNibBGAA/jEv6zt1MjUJEE8aFIsGgGv5+r+OGx4QOG/9HqpYpZqUZgVo3n4hRGHvhgHk3KsE+P6XcgOaMmWKNyMUcm0pgdWrVyvVTbf0AHjJAJxIzTRsALgX4N1R3yjVET/9Qy+AV6OgR/PNI/93+TUAqYZ0yy23WBoEcHDvElDtAXDLY4AyBsDpUwGHq9Ubk5JNmYD6198ipV0B2sdTBOOJAI8GQy9m+4GABmC6EeXNm5f4Kg0vELCCAAyA/C0AVQMQjTEAvjpkthdg7JT5upYNfsiLgQB59iYBngnLdND336dz586+Not3ENBOQNUA4BaAfPuOpgHgimS2F6DlvQ8qaVmurq3D7IDeDIZey/WN/oFc5jM/9rdnzx7too8DgoCPAMYAyPcAxOogQF/Zm+0F+GHBOsqXoGWxoGZeCwbIr/cIfC8T9P336dq1q6+t4h0ELCEAA+BdA8AVat3uY6bGAtzd7mEdvQCTvRcOkGMvEThPdcW//PnzU1JSkiWij4OCgI8ADIC3DcChE+mmDMDEub/pWDI4SwhxsZcCAvLqLQLd/a/kZT4/9dRTPo3GOwhYRgAGwNsGgCvW6j+PmjIBt9/7gI5egDe8FRKQW68Q4OUvt8oEfd8++fLlox07dlgm+jgwCPgIwADAAOw5mmrKAIyfuYri4uJVTQBPjpbPK0EB+fQOAeUlf6M9OtgXHPDufgKqBuAFl0wFvF5iKuBVilMBd+zY0REVLCs7h5ZuPWzKBDRqcZeqAeD9b/NOWEBOvULgC9+VvOw7P5qFFwjYQeDXX39VEnIYAPnHAJ1iALiebd17wpQB+PCLH5XqTa42fuWVoIB8eoMAr/p3XDbw837XXXedHbqPc4DAGQKqPQCumQdAogdA9TFAJxmA46cyTBkAniK4SrWaqiYgRQhR1BuhAbn0AoH7VII/7/vFF18gNIGAbQRUDQB6ANzRA8AV7tcd5gYDvvjGO6oGgPfv4IXAgDx6g8B4FQNQtmxZSktLs038cSIQwC2A3EGAEj0AbhkD4GsFSYdPmeoFmPnrTipcpKiqCZjujdCAXLqdAC91yV1a0g2iW7duvraIdxCwhQAMAAyAr6KlZWabMgB8G+DeBx+V1rtcrUwXQhRze3BA/txP4H6V4M/7rl+/3tcW8Q4CthCAAYieAejQoYMtZWzmJL/vMjcz4KgJM1QNAO/fzv3hATl0O4GxKgagTp06ZtoptgUBLQRgAKJnAJw0CNBXmf4+Ym5OAO4FuPDiSqom4Bu3Bwfkz90E8goh9qkYgEGDBvnaIN5BwDYCMAAwAP6VTeY2wENPPa9qAE4IIfgJKrxAICYJ1FMJ/nFxcfT333/7t0N8BgFbCKgagOddMhHQBolBgKsVJwJy4i0ArnRmbwN8PnWhqgHg/ZvGpPIj0SBwOvj3UjEAjRo1skXscRIQCCQAA/BPDwAMwL814y+TTwPwbYBKVS9TNQEDEElAIFYJLFMxAEOGDPm39eETCNhIYM2aNUrCjR4A+ad+nNoDcCI10/TTAI917a5Uj4QQq2NV/JFubxPgR1iyVQzA1q1bbZR8nAoE/iUAA4AegH9rw7+fVmw7YsoEfDpprqoBYA0t5e1QgtzHIoEWKsH/sssu+7fV4RMI2EwAtwBgAIJVuc17zK0NsGjTQSpRqrSqCWgdiwEAafY2gd4qBuCFF14I1v7wHQjYQgA9ADAAwSra/uNppnoAeBxAszvuUzUAw7wdSpD7WCQwV8UAzJkzJ1j7w3cgYAsBGIDoGYD27dvbUsYyJ0mXmBWw58Dhqgbg/9s7H+AoqjuOvwAhDLVRS9uAjtSWVikwBC3UoDJxrFoQpzBgRP74j1qMAzpF6kxbUWgrHallBmtrK4x0bJFarZ0pYouooFINZcSERLEJf/IHJOQPSYiBQExu69qcZAK7d++94+69e5+b2bnk3u7t733u9+e7b3ffvmNjAcBmdwlk6kz/m5WV5bW3t6vEJ9tAICEEEACpEwCmXgQYdax39spdB7D+rV1eRkaGjgj4WAjhT6nOCwJWEMjTOfrPz8+PxhrvEEgJAQQAAiDI8coPtkqfBvj6cO1HBE+wIvNjJASEEPfqCIDFixcHxR6fQyApBBAACIAgRzuoMC3wjbf8QGcEwN/2fioLBGwhsEpHAGzcuDEo9vgcAkkhoC0Axo713p/bXURtfr/9dq940iSpRXcmQJOvAfCdr1VhPoDFy3+nKwD8R6rzgoAVBP6jKgD86X9bW1uTkuTZCQSCCGgLgHSZChgBcIqLRCKeV1RxWOo0wLp/FekKgPetyPwY6TwB/wFAbaoCIDc395SA4wMIJJtASUmJVsK+jxEAZX6mjwD4vrhT8vHAWz+o9z531ueVmQgh/AsBs5yvLgAwnsBFqsXf387ER4Emu/iwv9QT0B4BQAAoFzsbBEBFrdyEQP58AJdedqUyk+6cmmt89sdA5wn4s1YpO/qKFStSn/2xwHkCCIDu6xc4BXDaWDig8GCg2Xfeo5wXu3PqbOerCwCMJ/CQjgDYtGnTaQOODyGQTAKcAkidAJg9e3Yyf2qlfTW1nZC6BsAfAfjFY0/pCoBfGp/9MdB5An/UEQB1dXVKAclGEEgkAUYAUicAbDgF0N7RJS0Anl7/hq4A+Kvz1QUAxhNQngI4JycnkTmc74KAMgFGANQFwLuTJmkVOhtGAHzHKtotdyfAayX7dWcE3G589sdA5wlUqo4AXHHFFcoJmw0hkEgCCAB1AZDu8wBE/aykqll6FOCLXx6sI44anK8uADCaQL/u21WUnNyGob9o8POe3gQQAKkTALaMAOw6ID8lcO7YPKXc2OOgKtvoCoBxThO4sIejSjv6gw8+mN5Vhd5ZQwAB0C0A7rhDahZAf9ZA3REAWwTA3kNt0iMAk6fPks6LvXLqaKcrDJ03mkB+L2eVcvY1a9ZYUyAwNL0J6AqAhekyD4CCAHDlGoD9CrcC3rXwgXhyoj/UXyqE2CCEWP1Jxl8qhLhTCDFZCMEIgNEl0G3jbtYRAJs3b07vqkLvrCGwc+fOeBJ14DoD+vb1srOy7F/69/eyMzOlF508YMsIQP2R49IjAI8++Rdv9KWXeVdPmurNuK3Qu+fHP/eWrljlPfHMBu/5V3d4xXvr3nC7hNB7mwnM1wn83bt3W1MgMDS9CegKAJ04cH1bWwRAy9EOaQHgzwcQtuw6cKTc5gKA7W4T0JoEqLm5Ob2rCr2zhoDuKQDXi7hO/20RAMdOdIYW87BCH9RWWtNS73YJofc2E3hMNfD79evnRfzHbPGCgAEEEADq03mr5oDodrYIgI5O+cmAggp/9POSyuZWmwsAtrtN4M/RIJZ9ZxIgA6oeJnxGAAGAAPjMGQL+6IpEEj4C8O6+5uNulxB6bzOBf8oW/uj6I0aMCAgzPoZA8glwDQACIB6vK6qQmw0weqQf9L59b1OnzQUA290mUBQt6LLvEyZMiCfeWAcCSSGAAEidAJg1a1ZSfuNE7GT7nqaEjgJs23044nYJofc2EyiTLfzR9SdOnJiIeOQ7IJAQAggABEA8jrSjUn464KCj/+jnlZXeAJuLALa7S+C/0YIu+z516tR44o11IJAUAggABEA8jrazuiWhIwC+CKipOz7M3RJCz20msEe28EfXnzFjRjzxxjoQSAoBBAACIB5HK61JvADYX9fGdL82V0GHba+OFnTZ91tvvTWeeGMdCCSFAAIAARCPo5WdAQFQWd82xuEaQtctJnBQtvBH1583b1488cY6EEgKAQQAAiAeRyurOZLwUwDVDUe/ZXENwHSHCfizWAXOjx7WNn/+/HjijXUgkBQCpaWlSn4c5uO0xZcbZs6cmZTfOBE7ORMCoKbx6DiHawhdt5hAs2qSKywsTEQ88h0QSAgBRgDiK9aq8R62nU23Ab63P/EjAJWNxy6zuAZgusMEWsICO6xt7ty5CUncfAkEEkGAEYDUCQCbRgDOiAA4fCzP4RpC1y0mUBtW5MPa5syZk4i8zXdAICEEqqurvYKCgtAlMzNT+TTBkCFDQr871r6HDh2qvG8/Dnt+/3XXXeddc801cS+jRo3S2veYMWNC97Vs2bKE/IbJ+JIzIQCq69uvtLgGYLrDBPaFFfmwNm4DTEa6Yh+JJJCdna1cCG+44QYtU/yj5LB4CmvLyMjQ2vfatWuV9+3btWHDBq39m7Sxym2Ak6fP8s674Cve+UMv9C4emfvpMuqScd64y/M/Xc49d9BmIcRz3csqIcSTQojfCiEe+aS2LHW4vtB1wwnsCks8YW3Tpk0zKa6xBQIxCSAA1E4TpJMAKK6Snwkwd2yejoD60PAagHkOE3gnrMiHtV1//fUxEy4rQMAkAggABMCOffIC4OKRo3UEQIXD9YWuG07g32FFPqxt/PjxJuV2bIFATAIIAASAysOALrhwmI4A2GF4DcA8hwlsCivyYW3Dhw+PmXBZAQImEUAAIABUHgf8pZwhOgLgTYfrC103nMD6sCIf1paTk2NSbscWCMQkgABwWwBEPE9pFsCsAQN0BMBLhtcAzHOYwNNhRT6srX///jETLitAwCQCCAC3BUBnV0RaALxaUqNT/P1tn3W4vtB1wwn8KqzIx2pra2szKb9jCwRCCSAA3BYA7R2d0gLgb6/t0BUAjxleAzDPYQKLYhX5sPaqqqrQhEsjBEwigABwWwAcOdYhLQCeeuFVXQGw2OH6QtcNJzAnrMDHatu6datJ+R1bIBBKAAHgtgBoaD0hLQB+vepZXQEwz/AagHkOE7g2VpEPa1+3bl1owqURAiYRQAC4LQAONrVLC4D7f7ZCVwBMcbi+0HXDCYwOK/Cx2pYvX25SfscWCIQSQAC4LQCqGo5KC4Db7r5PVwDwoCDDi6DL5uXEKvJh7QsWLAhNuDRCwCQCCAC3BUBF7UfSAmDilJt0BcBXXS4w9N1sAn2FEJ1hRT6sbcqUKSbld2yBQCgBBIDbAkDlSYCXfPtyHQHg59ZMs0sA1rlOoCasyIe15ebmhiZcGiFgEgEEgNsC4N1K+ecADD7vAh0BUOV6caH/5hPwH2Wp5OQDBw70urq6TMrx2AKBQAIIALU4T4enAUYinvd2RaPUKYAtpR96ffr0UcqN3Tl1i/npHwtdJ/AHVQHgb1dZWRmYcGmAgEkEtmzZ4r3yyitKS3FxsVZXysrKlPYbtVdn57W1tVr7bmho0Nm9EdseOyE/CdCfXnxTp/j7265xvbjQf/MJ/EhHAGzcuNGIAMcICEAAAkEEDrfJzwHw8G/W6AqAh8xP/1joOgH/PlVlR1+5cmVQzPE5BCAAASMIHGg6JjX8/1Z5o3fXwgeU82J3TvUnWuMFAaMJjNQRAIWFhUYEOEZAAAIQCCKw55D8LYDf/V6BrgC41OjMj3EQEEIMEEJ0qYqA/Pz8oJjjcwhAAAJGECiraZEeARh20QgdAeDn1IFUGAjYQKBaVQD4V1ZzJ4AROQ4jIACBAALb9zRJCYDXyw56/fpl6giAPTYkfmyEgE/gZVUB4G9XXl4eEHZ8DAEIQCC1BDo6u6SKv3/+f83fN+sUf3/bFyktELCFwCM6AoCHAqU2wbF3CEAgmECTwh0AP1m2UlcA+DmVFwSsIHCTjgBYtGhRcPTRAgEIQCCFBGoa5R8CNH3293UFwC1WZH6MhIAQYpiOALjqqqtSGN7sGgIQgEAwgV0HWqVPAVw8MldXAHyTygIBWwhkCCGaVUUAFwIGJx9aIACB1BLYvlfuAsDNOw/oXgD4kRDCf9AaLwhYQ+A1VQHgb1dSUpLaKGfvEIAABHoROP6x/AWATzyzQffo/3Vrsj6GQqCbwK90BMDjjz/eK/T4FwIQgEBqCTR+JD8F8Pz7l+oKgEepKhCwjcDNOgKgoKAgtZHO3iEAAQj0IlDdIH8BYP61k3UFgJ9LeUHAKgLf0BEAgwcP7hV6/AsBCEAgtQTe239E6gLArR/Ue2ef8wVdAeBfVM0LAlYR8C8EbNARAUwIlNpkx94hAIGTBLoiEa+o4rCUAHj6H6/rFv9aq7I+xkKgB4EXdATA6tWrT0Yff0EAAhBIIYGWox1Sxd+fAfDenz6sKwCe65FP+RMCVhG4R0cAzJw5M4Xhzq4hAAEInCSgcv5/wncm6QqABVZlfIyFQA8Co3QEwKBBg7zOzs6TEchfEIAABFJEoFTyCYBv7jrknZV9tq4AyO2RT/kTAlYR8K8DqNMRAdu2bUtRuLNbCEAAAv8n0NkV8d6uaJQ6BfD7ddr3/zcJIfpYlfExFgK9CDyvIwCWLFlCDoIABCCQUgIqDwC67e77dI/+1/fKpfwLAesIzNcRAHl5eSkNfHYOAQhAoLJe/v7/BMz//0Prsj0GQ6AXgZE6AqBv375eY2MjGQgCEIBAygiUVLVIDf+/VFTu9enTR3cEgAcA9Som/GsfAf86gEM6IsB/OqA/MyALDPABfCDZPjD9xhu9qydOkVrGjBuvW/yr7Uv1WAyB0xNYqyMA2FboJhO2FzAkjqzygVWnT6V8CgH7CMwg+ViVfBAMCAZ8ILU+MM2+NI/FEDg9gWwhxAlEACIAH8AH8IGYPvCxEOKc06dSPoWAnQReJvBjBj5HXak96oI//E3wgTfsTPFYDYFgAlq3AyIeEA/4AD7giA8sDE6jtEDATgLnCyEijgSwCUcR2MDRLD5gpw98zc4Uj9UQCCewAwHAURw+gA/gA4E+UByeQmmFgL0ElhD4gYHP0ZqdR2v8bvxuifQBP0fygkBaErgEAYAAwAfwAXwg0Ad4+l9alj465RPwZwWsIvgDgz+RRxJ8F0em+IBdPrCPMgGBdCewAgGAAMAH8AF84BQfWJ7uyZ/+QSCPwD8l8DlSs+tIjd+L3+tM+MBYygME0p0ApwFInmciefKd+JXNPuAP//u5kRcE0p4ApwFI1jYna2zHfxPtAwz/p33Zo4NRApwGIIEmOoHyffiUzT7A8H+0OiTx/X+uegC25j6a1QAAAABJRU5ErkJggg==;" vertex="1" parent="1">
          <mxGeometry x="438.5" y="238.5" width="47" height="47" as="geometry" />
        </mxCell>
        <mxCell id="imneoMgZ-NvgOX7fIsPj-31" value="&lt;span style=&quot;font-size: 20px;&quot;&gt;LogMT-Zero&lt;/span&gt;" style="text;html=1;align=center;verticalAlign=middle;whiteSpace=wrap;rounded=0;" vertex="1" parent="1">
          <mxGeometry x="397" y="284.5" width="130" height="30" as="geometry" />
        </mxCell>
      </root>
    </mxGraphModel>
  </diagram>
</mxfile>
